<svg width="642" height="642" viewBox="0 0 642 642" fill="none" xmlns="http://www.w3.org/2000/svg">
<g opacity="0.25">
<path d="M255.539 573.728C250.66 572.432 275.898 458.054 311.91 318.258C347.922 178.462 381.071 66.1857 385.95 67.482C390.83 68.7783 365.592 183.156 329.58 322.952C293.568 462.748 260.419 575.024 255.539 573.728Z" stroke="white" stroke-width="1.5" stroke-miterlimit="10"/>
<path d="M255.522 573.721C250.196 572.303 275.082 457.83 311.104 318.038C347.127 178.246 380.646 66.0722 385.972 67.4902C391.297 68.9081 366.412 183.381 330.389 323.173C294.366 462.965 260.847 575.139 255.522 573.721Z" stroke="white" stroke-width="1.5" stroke-miterlimit="10"/>
<path d="M255.5 573.712C249.729 572.172 274.263 457.604 310.297 317.817C346.331 178.03 380.22 65.9587 385.99 67.4986C391.761 69.0385 367.227 183.607 331.193 323.394C295.159 463.181 261.27 575.252 255.5 573.712Z" stroke="white" stroke-width="1.5" stroke-miterlimit="10"/>
<path d="M255.475 573.7C249.186 572.018 273.31 457.339 309.358 317.557C345.405 177.776 379.726 65.8245 386.015 67.507C392.305 69.1895 368.18 183.869 332.133 323.65C296.085 463.431 261.764 575.383 255.475 573.7Z" stroke="white" stroke-width="1.5" stroke-miterlimit="10"/>
<path d="M255.449 573.69C248.641 571.864 272.357 457.074 308.419 317.299C344.481 177.523 379.234 65.6928 386.041 67.5183C392.848 69.3437 369.133 184.134 333.07 323.909C297.008 463.684 262.256 575.515 255.449 573.69Z" stroke="white" stroke-width="1.5" stroke-miterlimit="10"/>
<path d="M255.419 573.677C248.02 571.688 271.27 456.771 307.349 317.003C343.428 177.235 378.674 65.5432 386.073 67.5324C393.472 69.5215 370.222 184.438 334.143 324.207C298.063 463.975 262.818 575.667 255.419 573.677Z" stroke="white" stroke-width="1.5" stroke-miterlimit="10"/>
<path d="M255.383 573.663C247.32 571.489 270.047 456.43 306.146 316.67C342.245 176.911 378.046 65.3753 386.11 67.5491C394.173 69.7229 371.446 184.783 335.347 324.542C299.248 464.301 263.447 575.837 255.383 573.663Z" stroke="white" stroke-width="1.5" stroke-miterlimit="10"/>
<path d="M255.346 573.643C246.618 571.285 268.823 456.082 304.943 316.332C341.063 176.581 377.419 65.2035 386.146 67.5624C394.874 69.9213 372.668 185.124 336.549 324.874C300.429 464.624 264.073 576.002 255.346 573.643Z" stroke="white" stroke-width="1.5" stroke-miterlimit="10"/>
<path d="M255.303 573.625C245.838 571.06 267.465 455.699 303.608 315.959C339.751 176.219 376.724 65.0173 386.189 67.5822C395.654 70.1472 374.027 185.508 337.884 325.248C301.741 464.988 264.768 576.19 255.303 573.625Z" stroke="white" stroke-width="1.5" stroke-miterlimit="10"/>
<path d="M255.251 573.601C244.902 570.789 265.836 455.237 302.008 315.511C338.181 175.784 375.893 64.7938 386.242 67.6067C396.591 70.4196 375.657 185.971 339.485 325.697C303.312 465.424 265.6 576.414 255.251 573.601Z" stroke="white" stroke-width="1.5" stroke-miterlimit="10"/>
<path d="M255.197 573.577C243.965 570.515 264.207 454.774 300.409 315.061C336.611 175.348 375.064 64.5707 386.296 67.6322C397.528 70.6937 377.285 186.435 341.084 326.148C304.882 465.861 266.429 576.638 255.197 573.577Z" stroke="white" stroke-width="1.5" stroke-miterlimit="10"/>
<path d="M255.138 573.549C242.95 570.218 262.443 454.27 298.678 314.573C334.912 174.876 374.166 64.3295 386.355 67.6609C398.543 70.9923 379.049 186.94 342.815 326.637C306.58 466.334 267.326 576.88 255.138 573.549Z" stroke="white" stroke-width="1.5" stroke-miterlimit="10"/>
<path d="M255.072 573.516C241.855 569.893 260.542 453.724 296.813 314.044C333.083 174.365 373.201 64.0687 386.418 67.6913C399.636 71.314 380.948 187.483 344.678 327.163C308.407 466.843 268.29 577.139 255.072 573.516Z" stroke="white" stroke-width="1.5" stroke-miterlimit="10"/>
<path d="M255.003 573.483C240.683 569.547 258.508 453.14 294.817 313.48C331.126 173.819 372.169 63.7926 386.489 67.7281C400.809 71.6635 382.983 188.071 346.675 327.731C310.366 467.391 269.323 577.418 255.003 573.483Z" stroke="white" stroke-width="1.5" stroke-miterlimit="10"/>
<path d="M254.924 573.441C239.354 569.15 256.203 452.473 292.555 312.836C328.908 173.198 370.999 63.4779 386.568 67.7685C402.138 72.0591 385.29 188.736 348.937 328.374C312.584 468.011 270.493 577.731 254.924 573.441Z" stroke="white" stroke-width="1.5" stroke-miterlimit="10"/>
<path d="M254.834 573.394C237.868 568.705 253.624 451.727 290.026 312.116C326.428 172.505 369.691 63.128 386.656 67.8164C403.622 72.5048 387.866 189.483 351.464 329.094C315.063 468.706 271.8 578.082 254.834 573.394Z" stroke="white" stroke-width="1.5" stroke-miterlimit="10"/>
<path d="M254.747 573.343C236.385 568.256 251.048 450.977 287.498 311.393C323.949 171.808 368.384 62.7763 386.746 67.8631C405.108 72.95 390.445 190.229 353.994 329.814C317.544 469.398 273.109 578.43 254.747 573.343Z" stroke="white" stroke-width="1.5" stroke-miterlimit="10"/>
<path d="M254.644 573.287C234.664 567.738 248.061 450.11 284.568 310.558C321.074 171.005 366.866 62.3737 386.846 67.9228C406.825 73.4718 393.428 191.1 356.922 330.652C320.415 470.205 274.624 578.836 254.644 573.287Z" stroke="white" stroke-width="1.5" stroke-miterlimit="10"/>
<path d="M254.541 573.225C232.869 567.192 244.941 449.2 281.505 309.681C318.069 170.163 365.279 61.9512 386.951 67.9841C408.623 74.0171 396.551 192.01 359.987 331.528C323.423 471.047 276.213 579.258 254.541 573.225Z" stroke="white" stroke-width="1.5" stroke-miterlimit="10"/>
<path d="M254.425 573.153C230.839 566.572 241.411 448.168 278.038 308.688C314.666 169.209 363.479 61.4734 387.065 68.0541C410.651 74.6348 400.079 193.04 363.452 332.519C326.824 471.998 278.011 579.734 254.425 573.153Z" stroke="white" stroke-width="1.5" stroke-miterlimit="10"/>
<path d="M254.304 573.075C228.654 565.904 237.607 447.055 274.302 307.619C310.996 168.182 361.536 60.9602 387.185 68.1314C412.835 75.3026 403.882 194.151 367.188 333.588C330.493 473.024 279.954 580.246 254.304 573.075Z" stroke="white" stroke-width="1.5" stroke-miterlimit="10"/>
<path d="M254.18 572.993C226.317 565.189 233.532 445.864 270.295 306.474C307.059 167.085 359.449 60.4137 387.311 68.2181C415.174 76.0226 407.959 195.347 371.196 334.737C334.433 474.127 282.043 580.798 254.18 572.993Z" stroke="white" stroke-width="1.5" stroke-miterlimit="10"/>
<path d="M254.047 572.899C223.747 564.398 229.045 444.55 265.881 305.212C302.717 165.874 357.142 59.8095 387.443 68.311C417.743 76.8125 412.445 196.66 375.608 335.998C338.772 475.337 284.347 581.401 254.047 572.899Z" stroke="white" stroke-width="1.5" stroke-miterlimit="10"/>
<path d="M253.914 572.799C221.025 563.558 224.285 443.155 261.195 303.872C298.105 164.589 354.689 59.1694 387.578 68.4105C420.467 77.6517 417.207 198.054 380.297 337.337C343.387 476.62 286.803 582.04 253.914 572.799Z" stroke="white" stroke-width="1.5" stroke-miterlimit="10"/>
<path d="M253.772 572.687C217.994 562.622 218.975 441.601 255.964 302.379C292.952 163.158 351.94 58.4558 387.718 68.5211C423.496 78.5865 422.514 199.607 385.526 338.829C348.538 478.051 289.549 582.752 253.772 572.687Z" stroke="white" stroke-width="1.5" stroke-miterlimit="10"/>
<path d="M253.63 572.567C214.737 561.614 213.256 439.927 250.324 300.772C287.391 161.616 348.97 57.6879 387.863 68.6408C426.757 79.5938 428.237 201.281 391.17 340.436C354.102 479.591 292.524 583.52 253.63 572.567Z" stroke="white" stroke-width="1.5" stroke-miterlimit="10"/>
<path d="M253.482 572.436C211.171 560.512 206.985 438.095 244.133 299.012C281.282 159.929 345.697 56.8466 388.009 68.7714C430.321 80.6961 434.506 203.112 397.358 342.196C360.21 481.279 295.794 584.361 253.482 572.436Z" stroke="white" stroke-width="1.5" stroke-miterlimit="10"/>
<path d="M253.335 572.297C207.301 559.317 200.165 436.108 237.395 297.102C274.625 158.097 342.124 55.9333 388.157 68.9137C434.191 81.8941 441.328 205.103 404.098 344.108C366.868 483.114 299.369 585.277 253.335 572.297Z" stroke="white" stroke-width="1.5" stroke-miterlimit="10"/>
<path d="M253.187 572.147C203.126 558.028 192.791 433.962 230.102 295.04C267.413 156.117 338.242 54.9446 388.303 69.0641C438.363 83.1836 448.699 207.249 411.387 346.171C374.076 485.094 303.247 586.266 253.187 572.147Z" stroke="white" stroke-width="1.5" stroke-miterlimit="10"/>
<path d="M253.045 571.988C198.652 556.647 184.869 431.662 222.26 292.827C259.651 153.993 334.056 53.8815 388.449 69.2231C442.842 84.5647 456.625 209.549 419.234 348.384C381.843 487.219 307.438 587.33 253.045 571.988Z" stroke="white" stroke-width="1.5" stroke-miterlimit="10"/>
<path d="M252.899 571.816C193.717 555.127 176.116 429.128 213.586 290.388C251.057 151.648 329.409 52.7061 388.591 69.3944C447.773 86.0826 465.374 212.082 427.904 350.822C390.433 489.561 312.081 588.504 252.899 571.816Z" stroke="white" stroke-width="1.5" stroke-miterlimit="10"/>
<path d="M252.758 571.632C188.329 553.473 166.538 426.364 204.086 287.726C241.634 149.087 324.303 51.4193 388.733 69.578C453.162 87.7367 474.954 214.846 437.405 353.484C399.857 492.122 317.188 589.791 252.758 571.632Z" stroke="white" stroke-width="1.5" stroke-miterlimit="10"/>
<path d="M252.624 571.44C182.563 551.709 156.266 423.41 193.889 284.878C231.511 146.345 318.805 50.0379 388.866 69.7692C458.927 89.5005 485.224 217.799 447.602 356.331C409.979 494.864 322.685 591.171 252.624 571.44Z" stroke="white" stroke-width="1.5" stroke-miterlimit="10"/>
<path d="M252.495 571.237C176.267 549.79 145.028 420.192 182.721 281.771C220.415 143.351 312.766 48.5249 388.994 69.9719C465.222 91.4189 496.46 221.017 458.767 359.438C421.074 497.858 328.723 592.684 252.495 571.237Z" stroke="white" stroke-width="1.5" stroke-miterlimit="10"/>
<path d="M252.376 571.026C169.444 547.721 132.825 416.711 170.585 278.408C208.345 140.105 306.184 46.88 389.116 70.1849C472.048 93.4898 508.667 224.499 470.907 362.802C433.148 501.106 335.308 594.33 252.376 571.026Z" stroke="white" stroke-width="1.5" stroke-miterlimit="10"/>
<path d="M252.262 570.802C162.013 545.477 119.513 412.93 157.335 274.749C195.156 136.569 298.978 45.0809 389.227 70.4055C479.476 95.7301 521.976 228.277 484.154 366.458C446.333 504.639 342.511 596.127 252.262 570.802Z" stroke="white" stroke-width="1.5" stroke-miterlimit="10"/>
<path d="M252.161 570.575C153.981 543.07 105.097 408.858 142.975 270.804C180.853 132.75 291.15 43.1325 389.33 70.6375C487.51 98.1425 536.394 232.354 498.516 370.408C460.638 508.462 350.341 598.08 252.161 570.575Z" stroke="white" stroke-width="1.5" stroke-miterlimit="10"/>
<path d="M252.071 570.334C145.193 540.448 89.2992 404.413 127.228 266.491C165.157 128.569 282.546 40.9892 389.423 70.8754C496.301 100.762 552.195 236.797 514.266 374.719C476.337 512.64 358.949 600.221 252.071 570.334Z" stroke="white" stroke-width="1.5" stroke-miterlimit="10"/>
<path d="M251.989 570.089C135.722 537.643 72.2522 399.642 110.225 261.855C148.198 124.068 273.233 38.6717 389.5 71.1176C505.767 103.563 569.237 241.565 531.264 379.352C493.291 517.139 368.255 602.535 251.989 570.089Z" stroke="white" stroke-width="1.5" stroke-miterlimit="10"/>
<path d="M251.922 569.839C125.347 534.594 53.5514 394.437 91.5616 256.788C129.572 119.14 262.995 36.1247 389.57 71.369C516.145 106.613 587.941 246.771 549.93 384.419C511.92 522.068 378.497 605.083 251.922 569.839Z" stroke="white" stroke-width="1.5" stroke-miterlimit="10"/>
<path d="M251.868 569.585C114.14 531.325 33.3279 388.837 71.3682 251.329C109.409 113.82 251.897 33.3627 389.624 71.6221C527.352 109.881 608.164 252.369 570.124 389.878C532.084 527.386 389.595 607.844 251.868 569.585Z" stroke="white" stroke-width="1.5" stroke-miterlimit="10"/>
<path d="M318.421 329.436C178.613 293.427 66.3192 260.278 67.6043 255.396C68.8894 250.513 183.267 275.747 323.075 311.757C462.882 347.766 575.176 380.915 573.891 385.797C572.606 390.68 458.228 365.446 318.421 329.436Z" stroke="white" stroke-width="1.5" stroke-miterlimit="10"/>
<path d="M318.203 330.245C178.398 294.225 66.2033 260.706 67.6083 255.378C69.0133 250.05 183.486 274.931 323.291 310.95C463.096 346.97 575.291 380.49 573.886 385.818C572.481 391.146 458.008 366.265 318.203 330.245Z" stroke="white" stroke-width="1.5" stroke-miterlimit="10"/>
<path d="M317.986 331.051C178.184 295.02 66.0886 261.131 67.6136 255.357C69.1387 249.584 183.707 274.112 323.509 310.143C463.311 346.173 575.406 380.063 573.881 385.836C572.356 391.61 457.788 367.082 317.986 331.051Z" stroke="white" stroke-width="1.5" stroke-miterlimit="10"/>
<path d="M317.733 331.991C177.935 295.946 65.9555 261.626 67.6209 255.333C69.2862 249.04 183.965 273.158 323.764 309.202C463.562 345.246 575.542 379.567 573.876 385.86C572.211 392.153 457.532 368.035 317.733 331.991Z" stroke="white" stroke-width="1.5" stroke-miterlimit="10"/>
<path d="M317.477 332.93C177.682 296.872 65.8198 262.119 67.6256 255.308C69.4315 248.496 184.222 272.205 324.017 308.263C463.812 344.321 575.674 379.074 573.868 385.885C572.062 392.697 457.272 368.988 317.477 332.93Z" stroke="white" stroke-width="1.5" stroke-miterlimit="10"/>
<path d="M317.187 334.003C177.396 297.929 65.6678 262.683 67.6345 255.279C69.6012 247.876 184.518 271.118 324.309 307.193C464.099 343.267 575.828 378.513 573.861 385.917C571.894 393.32 456.977 370.078 317.187 334.003Z" stroke="white" stroke-width="1.5" stroke-miterlimit="10"/>
<path d="M316.857 335.208C177.072 299.114 65.4948 263.313 67.6428 255.244C69.7908 247.176 184.85 269.894 324.636 305.988C464.421 342.082 575.998 377.883 573.85 385.952C571.702 394.021 456.642 371.302 316.857 335.208Z" stroke="white" stroke-width="1.5" stroke-miterlimit="10"/>
<path d="M316.529 336.412C176.749 300.298 65.3239 263.942 67.6536 255.209C69.9833 246.475 185.186 268.672 324.965 304.785C464.745 340.899 576.17 377.255 573.84 385.989C571.511 394.722 456.308 372.526 316.529 336.412Z" stroke="white" stroke-width="1.5" stroke-miterlimit="10"/>
<path d="M316.164 337.745C176.391 301.608 65.1351 264.635 67.667 255.164C70.199 245.693 185.56 267.309 325.333 303.446C465.106 339.583 576.362 376.555 573.83 386.027C571.298 395.498 455.937 373.881 316.164 337.745Z" stroke="white" stroke-width="1.5" stroke-miterlimit="10"/>
<path d="M315.723 339.351C175.959 303.186 64.9072 265.473 67.6823 255.117C70.4574 244.762 186.009 265.684 325.773 301.849C465.537 338.014 576.589 375.727 573.814 386.083C571.039 396.438 455.488 375.516 315.723 339.351Z" stroke="white" stroke-width="1.5" stroke-miterlimit="10"/>
<path d="M315.282 340.949C175.527 304.755 64.6796 266.302 67.6984 255.063C70.7173 243.823 186.459 264.052 326.214 300.246C465.97 336.44 576.816 374.893 573.798 386.133C570.779 397.372 455.037 377.143 315.282 340.949Z" stroke="white" stroke-width="1.5" stroke-miterlimit="10"/>
<path d="M314.802 342.682C175.056 306.456 64.4324 267.202 67.7158 255.005C70.9992 242.808 186.947 262.288 326.692 298.514C466.437 334.74 577.061 373.994 573.778 386.191C570.494 398.388 454.547 378.908 314.802 342.682Z" stroke="white" stroke-width="1.5" stroke-miterlimit="10"/>
<path d="M314.285 344.547C174.551 308.286 64.1683 268.168 67.7373 254.942C71.3062 241.715 187.476 260.388 327.209 296.649C466.942 332.91 577.326 373.028 573.757 386.255C570.188 399.481 454.018 380.808 314.285 344.547Z" stroke="white" stroke-width="1.5" stroke-miterlimit="10"/>
<path d="M313.731 346.544C174.011 310.245 63.8868 269.202 67.7623 254.872C71.6378 240.543 188.045 258.352 327.765 294.651C467.485 330.95 577.609 371.993 573.734 386.323C569.858 400.653 453.451 382.843 313.731 346.544Z" stroke="white" stroke-width="1.5" stroke-miterlimit="10"/>
<path d="M313.1 348.808C173.395 312.466 63.5666 270.375 67.7904 254.795C72.0141 239.215 188.691 256.047 328.395 292.389C468.1 328.732 577.929 370.823 573.705 386.403C569.481 401.982 452.804 385.151 313.1 348.808Z" stroke="white" stroke-width="1.5" stroke-miterlimit="10"/>
<path d="M312.394 351.337C172.708 314.946 63.21 271.684 67.8238 254.707C72.4376 237.731 189.416 253.469 329.102 289.86C468.788 326.251 578.285 369.514 573.671 386.491C569.058 403.467 452.08 387.728 312.394 351.337Z" stroke="white" stroke-width="1.5" stroke-miterlimit="10"/>
<path d="M311.685 353.864C172.018 317.425 62.8531 272.99 67.8578 254.617C72.8625 236.243 190.142 250.889 329.808 287.328C469.475 323.768 578.64 368.202 573.636 386.576C568.631 404.949 451.352 390.303 311.685 353.864Z" stroke="white" stroke-width="1.5" stroke-miterlimit="10"/>
<path d="M310.865 356.795C171.221 320.299 62.4429 274.508 67.9012 254.517C73.3594 234.526 190.988 247.905 330.631 284.4C470.274 320.895 579.053 366.687 573.595 386.678C568.136 406.669 450.508 393.29 310.865 356.795Z" stroke="white" stroke-width="1.5" stroke-miterlimit="10"/>
<path d="M310.003 359.858C170.385 323.306 62.0127 276.096 67.9461 254.413C73.8795 232.73 191.872 244.784 331.49 281.337C471.108 317.89 579.481 365.099 573.548 386.782C567.614 408.466 449.621 396.411 310.003 359.858Z" stroke="white" stroke-width="1.5" stroke-miterlimit="10"/>
<path d="M309.029 363.323C169.441 326.706 61.5285 277.893 68.0001 254.296C74.4717 230.699 192.877 241.254 332.465 277.871C472.053 314.488 579.966 363.301 573.494 386.898C567.022 410.495 448.617 399.94 309.029 363.323Z" stroke="white" stroke-width="1.5" stroke-miterlimit="10"/>
<path d="M307.977 367.06C168.422 330.376 61.0074 279.836 68.0598 254.176C75.1121 228.516 193.961 237.454 333.516 274.138C473.071 310.822 580.486 361.362 573.434 387.022C566.381 412.681 447.532 403.744 307.977 367.06Z" stroke="white" stroke-width="1.5" stroke-miterlimit="10"/>
<path d="M306.851 371.064C167.332 334.309 60.4524 281.919 68.1281 254.048C75.8038 226.176 195.128 233.377 334.647 270.132C474.165 306.886 581.045 359.276 573.37 387.148C565.694 415.019 446.369 407.818 306.851 371.064Z" stroke="white" stroke-width="1.5" stroke-miterlimit="10"/>
<path d="M305.607 375.473C166.129 338.644 59.8399 284.219 68.2023 253.912C76.5648 223.605 196.413 228.892 335.89 265.721C475.367 302.55 581.656 356.975 573.294 387.283C564.932 417.59 445.084 412.303 305.607 375.473Z" stroke="white" stroke-width="1.5" stroke-miterlimit="10"/>
<path d="M304.286 380.156C164.853 343.25 59.1916 286.667 68.2835 253.774C77.3755 220.88 197.778 224.132 337.21 261.038C476.643 297.943 582.304 354.527 573.212 387.42C564.121 420.314 443.718 417.061 304.286 380.156Z" stroke="white" stroke-width="1.5" stroke-miterlimit="10"/>
<path d="M302.812 385.382C163.431 348.395 58.4701 289.407 68.3759 253.628C78.2816 217.849 199.303 218.827 338.684 255.814C478.065 292.801 583.025 351.789 573.12 387.568C563.214 423.348 442.193 422.369 302.812 385.382Z" stroke="white" stroke-width="1.5" stroke-miterlimit="10"/>
<path d="M301.223 391.017C161.898 353.947 57.694 292.368 68.4771 253.477C79.2603 214.586 200.947 213.109 340.272 250.179C479.598 287.249 583.802 348.828 573.018 387.719C562.235 426.61 440.548 428.086 301.223 391.017Z" stroke="white" stroke-width="1.5" stroke-miterlimit="10"/>
<path d="M299.481 397.195C160.218 360.039 56.8437 295.624 68.5886 253.32C80.3335 211.015 202.75 206.841 342.013 243.997C481.276 281.153 584.65 345.568 572.905 387.872C561.16 430.177 438.744 434.351 299.481 397.195Z" stroke="white" stroke-width="1.5" stroke-miterlimit="10"/>
<path d="M297.588 403.925C158.393 366.682 55.9219 299.183 68.7128 253.163C81.5037 207.142 204.713 200.027 343.908 237.27C483.103 274.513 585.573 342.012 572.782 388.033C559.992 434.053 436.783 441.169 297.588 403.925Z" stroke="white" stroke-width="1.5" stroke-miterlimit="10"/>
<path d="M295.542 411.205C156.421 373.874 54.9265 303.045 68.8474 253.005C82.7684 202.964 206.833 192.662 345.954 229.993C485.076 267.325 586.57 338.154 572.649 388.194C558.728 438.234 434.663 448.537 295.542 411.205Z" stroke="white" stroke-width="1.5" stroke-miterlimit="10"/>
<path d="M293.343 419.033C154.302 381.614 53.8555 307.208 68.9902 252.844C84.1249 198.479 209.11 184.742 348.151 222.161C487.193 259.581 587.639 333.986 572.504 388.351C557.37 442.716 432.385 456.453 293.343 419.033Z" stroke="white" stroke-width="1.5" stroke-miterlimit="10"/>
<path d="M290.919 427.689C151.965 390.181 52.6749 311.828 69.1487 252.684C85.6225 193.54 211.622 176.001 350.576 213.509C489.53 251.017 588.82 329.37 572.346 388.514C555.873 447.658 429.873 465.197 290.919 427.689Z" stroke="white" stroke-width="1.5" stroke-miterlimit="10"/>
<path d="M288.268 437.169C149.409 399.572 51.3824 316.903 69.32 252.522C87.2576 188.142 214.367 166.43 353.226 204.028C492.086 241.625 590.112 324.294 572.174 388.675C554.237 453.055 427.128 474.767 288.268 437.169Z" stroke="white" stroke-width="1.5" stroke-miterlimit="10"/>
<path d="M285.431 447.341C146.672 409.657 49.9972 322.363 69.5019 252.364C89.0066 182.365 217.305 156.168 356.064 193.852C494.823 231.535 591.498 318.83 571.993 388.829C552.488 458.828 424.19 485.025 285.431 447.341Z" stroke="white" stroke-width="1.5" stroke-miterlimit="10"/>
<path d="M282.333 458.484C143.681 420.715 48.4813 328.363 69.6975 252.211C90.9137 176.059 220.512 144.943 359.163 182.712C497.815 220.481 593.015 312.832 571.799 388.984C550.582 465.137 420.984 496.252 282.333 458.484Z" stroke="white" stroke-width="1.5" stroke-miterlimit="10"/>
<path d="M278.971 470.6C140.434 432.749 46.8301 334.909 69.9012 252.069C92.9724 169.229 223.982 132.758 362.519 170.609C501.056 208.46 594.659 306.3 571.588 389.14C548.517 471.981 417.508 508.451 278.971 470.6Z" stroke="white" stroke-width="1.5" stroke-miterlimit="10"/>
<path d="M275.316 483.819C136.9 445.888 45.0308 342.066 70.1203 251.926C95.2097 161.786 227.757 119.462 366.173 157.393C504.589 195.323 596.458 299.145 571.368 389.285C546.279 479.425 413.732 521.749 275.316 483.819Z" stroke="white" stroke-width="1.5" stroke-miterlimit="10"/>
<path d="M271.369 498.143C133.08 460.137 43.0815 349.84 70.3514 251.788C97.6212 153.736 231.833 105.058 370.122 143.064C508.411 181.07 598.41 291.367 571.14 389.419C543.87 487.471 409.658 536.149 271.369 498.143Z" stroke="white" stroke-width="1.5" stroke-miterlimit="10"/>
<path d="M267.054 513.855C128.899 475.778 40.9398 358.389 70.5924 251.66C100.245 144.931 236.28 89.277 374.436 127.354C512.591 165.431 600.55 282.82 570.897 389.549C541.245 496.279 405.209 551.932 267.054 513.855Z" stroke="white" stroke-width="1.5" stroke-miterlimit="10"/>
<path d="M262.414 530.813C124.396 492.669 38.6267 367.634 70.8422 251.538C103.058 135.441 241.059 72.2478 379.077 110.391C517.094 148.534 602.864 273.57 570.648 389.666C538.433 505.762 400.431 568.956 262.414 530.813Z" stroke="white" stroke-width="1.5" stroke-miterlimit="10"/>
<path d="M257.337 549.437C119.463 511.232 36.0826 377.81 71.1015 251.429C106.12 125.048 246.278 53.5664 384.152 91.7707C522.026 129.975 605.406 263.398 570.388 389.779C535.369 516.16 395.211 587.641 257.337 549.437Z" stroke="white" stroke-width="1.5" stroke-miterlimit="10"/>
<path d="M251.868 569.585C114.14 531.325 33.3279 388.837 71.3682 251.329C109.409 113.82 251.897 33.3627 389.624 71.6221C527.352 109.881 608.164 252.369 570.124 389.878C532.084 527.386 389.595 607.844 251.868 569.585Z" stroke="white" stroke-width="1.5" stroke-miterlimit="10"/>
</g>
</svg>
