<svg width="1600" height="293" viewBox="0 0 1600 293" fill="none" xmlns="http://www.w3.org/2000/svg">
<g opacity="0.5">
<path d="M0 292C532.948 292 1065.9 292 1598.85 292" stroke="url(#paint0_linear)" stroke-miterlimit="10"/>
<path d="M0 283.838C269.872 283.898 539.61 282.439 809.415 280.788C926.153 280.069 1043.69 280.305 1160.42 281.819C1306.53 283.712 1452.72 281.929 1598.8 283.838" stroke="url(#paint1_linear)" stroke-miterlimit="10"/>
<path d="M0 275.796C76.467 275.796 152.956 276.087 229.412 275.944C297.741 275.818 365.913 273.081 434.22 272.609C561.461 271.732 688.68 272.752 815.911 271.715C928.84 270.794 1042.94 268.353 1155.79 272.077C1221.56 274.271 1286.66 275.27 1352.49 276.175C1434.65 277.305 1516.72 274.238 1598.85 275.796" stroke="url(#paint2_linear)" stroke-miterlimit="10"/>
<path d="M0 267.864C75.3678 267.864 150.935 268.49 226.281 267.815C297.085 267.179 367.479 262.719 438.228 261.573C565.714 259.505 692.2 265.412 819.553 264.359C931.616 263.449 1042.09 256.054 1154.28 262.67C1219.85 266.537 1283.4 269.565 1349.45 270.448C1432.72 271.545 1515.58 266.208 1598.85 267.864" stroke="url(#paint3_linear)" stroke-miterlimit="10"/>
<path d="M0 260.086C74.0021 260.086 148.548 261.084 222.495 259.708C296.441 258.331 369.333 251.995 443.058 249.949C510.076 248.089 576.151 248.589 642.814 252.637C702.559 256.268 760.595 258.89 820.829 258.495C873.625 258.144 923.089 254.184 975.229 250.492C1034.9 246.263 1096.33 248.238 1155.44 253.624C1220.51 259.559 1281.87 265.237 1348.32 265.884C1432.12 266.707 1514.98 258.665 1598.85 260.086" stroke="url(#paint4_linear)" stroke-miterlimit="10"/>
<path d="M0 252.417C72.4033 252.417 145.906 253.761 218.187 251.611C295.42 249.318 371.343 241.013 448.409 237.898C514.579 235.188 581.19 237.045 646.322 243.416C704.469 249.022 760.684 254.03 820.119 253.8C875.157 253.586 924.954 246.702 978.382 241.134C1039.03 234.815 1099.04 237.212 1158.76 244.875C1222.77 253.103 1281.86 261.968 1348.76 262.203C1432.71 262.505 1514.75 251.496 1598.85 252.423" stroke="url(#paint5_linear)" stroke-miterlimit="10"/>
<path d="M0 244.87C70.6934 244.837 143.119 246.515 213.568 243.581C294.443 240.24 373.453 229.933 454.028 225.627C521.646 222.017 584.134 225.375 649.353 234.442C705.191 242.209 759.274 249.987 817.843 250.004C875.756 250.004 927.275 239.664 982.235 232.116C1044.85 223.52 1102.58 226.022 1163.76 236.406C1226.03 246.97 1283.2 259.444 1350.46 259.17C1434.29 258.797 1514.78 244.617 1598.85 244.87" stroke="url(#paint6_linear)" stroke-miterlimit="10"/>
<path d="M0 237.442C68.9058 237.393 140.243 239.258 208.738 235.649C293.321 231.194 375.285 218.896 459.568 213.345C528.13 208.831 587.642 213.658 651.807 225.737C704.747 235.703 756.742 246.504 814.356 246.844C875.246 247.206 930.139 233.005 986.454 223.444C1051.49 212.402 1107.01 214.749 1169.86 228.205C1229.7 241.019 1285.5 257.469 1353.06 256.548C1436.58 255.407 1514.96 237.969 1598.82 237.442" stroke="url(#paint7_linear)" stroke-miterlimit="10"/>
<path d="M0 230.136C67.1404 230.07 137.367 232.056 204.008 227.848C292.211 222.281 377.139 208.052 464.931 201.261C534.88 195.847 591.018 202.045 653.828 217.306C703.503 229.373 753.4 243.312 810.215 244.047C874.08 244.864 933.381 226.417 990.995 215.078C1021.17 209.171 1052.98 203.636 1085.88 204.909C1118.08 206.159 1148.57 212.857 1176.73 220.268C1233.49 235.171 1288.78 255.687 1356.32 254.118C1439.48 252.182 1515.24 231.496 1598.86 230.152" stroke="url(#paint8_linear)" stroke-miterlimit="10"/>
<path d="M0.0549316 222.955C65.5632 222.873 134.647 224.908 199.466 220.213C291.034 213.597 378.615 197.53 469.66 189.566C541.209 183.301 594.104 190.756 655.215 209.16C701.548 223.114 749.358 240.168 805.662 241.326C872.281 242.692 936.679 219.905 995.392 207.009C1026.15 200.251 1060.07 193.126 1094.42 194.695C1126.62 196.165 1156.79 204.195 1183.71 212.522C1237.39 229.132 1292.12 253.789 1359.83 251.589C1442.64 248.89 1515.47 225.062 1598.87 222.955" stroke="url(#paint9_linear)" stroke-miterlimit="10"/>
<path d="M0.0666504 215.901C64.0094 215.802 132.071 217.838 195.237 212.796C289.791 205.243 379.726 187.481 473.591 178.452C509.332 175.019 543.208 173.033 578.216 179.056C606.74 183.965 631.833 192.583 656.037 201.294C699.339 216.867 745.051 236.839 801.221 238.402C870.283 240.328 939.855 213.411 999.523 199.198C1030.81 191.744 1066.82 183.11 1102.48 184.936C1134.82 186.582 1164.59 195.836 1190.36 204.974C1241.19 222.988 1295.26 251.501 1363.34 248.742C1445.84 245.391 1515.66 218.611 1598.91 215.874" stroke="url(#paint10_linear)" stroke-miterlimit="10"/>
<path d="M0.0776367 208.962C62.6769 208.858 129.817 210.882 191.528 205.611C288.48 197.328 380.125 178.041 476.356 168.162C512.219 164.481 545.994 162.199 580.825 169.034C609.082 174.613 633.165 184.185 656.193 193.751C696.952 210.663 740.754 233.142 797.202 235.034C833.276 236.247 869.55 226.949 900.705 219.077C935.269 210.345 968.5 200.394 1003.05 191.65C1034.81 183.62 1072.56 173.768 1109.42 175.825C1142 177.641 1171.3 187.838 1196.15 197.657C1244.65 216.856 1297.7 248.594 1366.42 245.38C1448.79 241.54 1515.68 212.094 1598.92 208.94" stroke="url(#paint11_linear)" stroke-miterlimit="10"/>
<path d="M0.0888672 202.149C61.5667 202.045 127.996 204.075 188.519 198.704C287.182 189.955 379.892 169.352 477.733 158.858C513.429 155.019 547.46 152.567 581.935 159.89C610.159 165.885 633.52 176.28 655.715 186.505C694.776 204.491 736.923 228.836 794.06 230.937C831.122 232.286 868.451 222.215 900.094 213.888C935.813 204.48 970.044 193.773 1005.76 184.355C1037.96 175.858 1076.82 165.233 1114.67 167.399C1147.59 169.286 1176.39 180.12 1200.57 190.504C1247.57 210.684 1299 244.699 1368.82 241.271C1451.19 237.228 1515.53 205.418 1598.93 202.171" stroke="url(#paint12_linear)" stroke-miterlimit="10"/>
<path d="M0.11084 195.457C60.7226 195.369 126.742 197.437 186.376 192.111C285.871 183.225 378.837 161.541 477.433 150.762C512.641 146.922 547.304 144.421 581.291 151.793C609.748 157.964 632.787 168.919 654.571 179.577C693.01 198.414 733.914 223.734 792.25 225.775C830.134 227.102 867.562 216.927 899.65 208.222C936.124 198.348 970.987 187.092 1007.45 177.207C1040.06 168.365 1079.09 157.57 1117.71 159.72C1151.02 161.574 1179.34 172.605 1203.21 183.433C1249.84 204.579 1298.82 239.455 1370.28 236.06C1452.85 232.138 1515.25 198.37 1599 195.468" stroke="url(#paint13_linear)" stroke-miterlimit="10"/>
<path d="M0.12207 188.875C60.5118 188.688 126.32 191.014 185.699 185.583C284.517 176.527 376.295 154.196 474.113 143.165C509.221 139.21 543.863 136.84 577.827 144.125C606.695 150.329 630.189 161.415 652.296 172.204C691.445 191.316 732.782 216.96 791.884 219.351C830.034 220.893 867.24 210.844 899.473 202.001C936.002 191.974 970.799 180.498 1007.32 170.466C1040.08 161.459 1078.91 150.811 1117.83 153.115C1151.36 155.101 1179.5 166.154 1203.42 177.103C1250.24 198.545 1298.28 232.961 1370.31 229.763C1453.12 226.098 1514.87 191.409 1598.97 188.875" stroke="url(#paint14_linear)" stroke-miterlimit="10"/>
<path d="M0.133057 182.44C60.7781 182.1 126.386 185.035 185.977 179.226C283.04 169.764 372.753 147.065 468.783 135.644C504.313 131.415 538.045 129.216 572.497 136.549C601.887 142.797 626.214 153.768 649.131 164.465C689.58 183.367 732.66 209.269 791.761 212.533C829.678 214.629 867.018 204.552 898.973 195.715C935.058 185.737 969.333 174.251 1005.41 164.262C1038.11 155.205 1076.93 144.64 1115.79 147.378C1149.23 149.731 1177.78 160.943 1202.03 171.771C1249.1 192.78 1298.53 226.548 1369.69 223.444C1452.7 219.818 1514.65 184.931 1598.95 182.44" stroke="url(#paint15_linear)" stroke-miterlimit="10"/>
<path d="M0.155518 176.116C61.1448 175.71 126.575 179.462 186.532 173.313C281.619 163.56 368.989 140.565 462.999 128.881C498.829 124.416 531.772 122.425 566.613 129.665C596.458 135.869 621.762 146.555 645.534 157.169C687.337 175.819 732.404 201.628 791.451 205.682C829.024 208.265 866.075 198.397 897.741 189.599C933.215 179.725 966.769 168.31 1002.22 158.442C1034.82 149.369 1073.28 139.106 1111.96 142.232C1145.43 144.942 1174.5 156.204 1199.29 166.917C1246.98 187.487 1298.03 220.41 1368.65 217.349C1452.02 213.74 1514.32 178.628 1598.98 176.148" stroke="url(#paint16_linear)" stroke-miterlimit="10"/>
<path d="M0.177734 169.912C61.5889 169.522 126.986 174.267 187.365 167.805C280.275 157.871 365.103 134.641 456.903 122.754C492.878 118.097 525.199 116.347 560.329 123.379C590.707 129.457 616.955 139.835 641.648 150.258C685.194 168.573 731.838 194.009 791.051 198.809C828.18 201.815 864.576 192.374 895.931 183.636C930.628 173.96 963.327 162.644 998.002 152.956C1030.48 143.878 1068.2 134.125 1106.65 137.597C1140.27 140.642 1169.93 151.859 1195.47 162.424C1244.11 182.539 1296.99 214.453 1367.22 211.409C1451.11 207.772 1513.88 172.424 1599.06 169.928" stroke="url(#paint17_linear)" stroke-miterlimit="10"/>
<path d="M0.188721 163.828C62.0996 163.521 127.475 169.407 188.397 162.665C278.976 152.644 361.106 129.205 450.541 117.252C486.493 112.436 518.37 110.938 553.678 117.663C584.6 123.555 611.769 133.571 637.473 143.675C682.996 161.574 731.061 186.401 790.496 191.892C862.222 198.523 934.703 164.009 992.827 147.74C1025.18 138.678 1061.88 129.6 1099.99 133.401C1133.88 136.785 1164.17 147.893 1190.58 158.299C1240.46 177.942 1295.31 208.715 1365.37 205.654C1449.88 201.968 1513.25 166.363 1599.03 163.828" stroke="url(#paint18_linear)" stroke-miterlimit="10"/>
<path d="M0.210938 157.871C62.6658 157.701 128.052 164.849 189.607 157.871C277.755 147.844 357.053 124.295 444.002 112.304C479.831 107.367 511.397 106.138 546.805 112.474C578.293 118.119 606.406 127.691 633.12 137.476C680.62 154.865 730.117 178.864 789.852 185.035C860.49 192.319 929.851 158.804 986.898 142.797C1018.44 133.96 1055.22 125.052 1092.29 129.605C1126.71 133.829 1157.03 144.07 1184.94 154.492C1236.25 173.636 1293.21 203.164 1363.27 200.07C1448.5 196.313 1512.55 160.438 1599.06 157.833" stroke="url(#paint19_linear)" stroke-miterlimit="10"/>
<path d="M0.233154 152.029C63.2765 152.029 128.729 160.548 190.973 153.313C276.611 143.357 353.001 119.709 437.384 107.784C583.945 87.0548 660.401 163.582 789.141 178.228C858.535 186.132 924.388 153.823 980.403 138.14C1011.8 129.364 1047.15 121.371 1083.76 126.182C1118.61 130.762 1149.65 140.779 1178.68 151.004C1231.59 169.654 1290.76 197.838 1360.96 194.695C1446.98 190.855 1511.79 154.701 1599.09 152.029" stroke="url(#paint20_linear)" stroke-miterlimit="10"/>
<path d="M0.255371 146.313C63.9094 146.544 129.473 156.461 192.461 149.012C275.545 139.188 349.015 115.485 430.767 103.664C574.296 82.9187 661.711 155.776 788.375 171.469C856.57 179.928 918.47 149.051 973.464 133.67C1004.73 124.926 1038.54 117.987 1074.62 123.017C1109.94 127.954 1141.76 137.718 1171.96 147.729C1226.57 165.83 1287.99 192.659 1358.5 189.445C1445.36 185.49 1510.98 149.073 1599.12 146.313" stroke="url(#paint21_linear)" stroke-miterlimit="10"/>
<path d="M0.277588 140.718C64.5645 141.185 130.261 152.55 194.038 144.915C274.579 135.271 345.04 111.542 424.26 99.8796C564.748 79.1942 662.977 148.069 787.587 164.81C854.561 173.806 912.252 144.448 966.28 129.369C997.435 120.675 1029.57 114.849 1065.1 120.044C1100.9 125.304 1133.55 134.854 1164.95 144.618C1221.31 162.172 1284.99 187.602 1355.85 184.316C1443.57 180.241 1510.05 143.549 1599.08 140.696" stroke="url(#paint22_linear)" stroke-miterlimit="10"/>
<path d="M0.299805 135.244C65.2085 135.952 131.094 148.771 195.714 140.976C273.769 131.552 341.32 107.812 417.987 96.3472C555.488 75.7825 664.22 140.521 786.787 158.266C852.551 167.789 905.912 139.994 959.018 125.206C990.041 116.566 1020.61 111.887 1055.55 117.269C1091.86 122.864 1125.35 132.172 1157.93 141.695C1216.06 158.7 1281.99 182.726 1353.29 179.358C1441.93 175.167 1509.23 138.217 1599.15 135.244" stroke="url(#paint23_linear)" stroke-miterlimit="10"/>
<path d="M0.322021 129.896C65.8303 130.839 131.938 145.079 197.302 137.153C272.958 127.976 337.656 104.24 411.88 93.0009C546.661 72.5953 665.475 133.121 786.055 151.859C850.619 161.897 899.639 135.666 951.879 121.141C982.768 112.556 1011.84 109.024 1046.11 114.558C1082.92 120.494 1117.26 129.588 1151 138.848C1210.84 155.271 1278.97 177.942 1350.76 174.503C1440.28 170.197 1508.42 132.946 1599.21 129.907" stroke="url(#paint24_linear)" stroke-miterlimit="10"/>
<path d="M0.344238 124.663C66.5076 125.831 132.771 141.437 198.934 133.401C272.314 124.487 334.281 100.768 406.196 89.7701C538.389 69.5509 666.707 125.875 785.266 145.606C848.754 156.171 893.388 131.393 944.907 117.159C975.695 108.656 1003.24 106.188 1036.94 111.882C1074.22 118.157 1109.4 127.071 1144.24 136.061C1205.72 151.92 1275.95 173.258 1348.24 169.731C1438.61 165.315 1507.54 127.795 1599.17 124.663" stroke="url(#paint25_linear)" stroke-miterlimit="10"/>
<path d="M0.366455 119.556C67.1516 120.916 133.604 137.806 200.511 129.687C271.793 121.042 331.194 97.3234 400.955 86.583C468.628 76.1608 540.621 87.9269 603.831 100.499C664.787 112.628 722.734 128.535 784.6 139.534C847.288 150.68 887.27 127.071 938.4 113.204C1006.3 94.8001 1075.83 118.14 1137.98 133.275C1200.94 148.59 1273.15 168.655 1345.92 165.052C1437.08 160.543 1506.78 122.759 1599.21 119.55" stroke="url(#paint26_linear)" stroke-miterlimit="10"/>
<path d="M0.388428 114.564C67.7953 116.084 134.258 134.141 202.021 125.963C271.404 117.581 328.44 93.8787 396.325 83.3742C463.376 72.9849 537.267 84.2683 600.777 95.7821C662.965 107.06 722.156 121.953 784.011 133.67C845.867 145.387 881.996 122.935 932.471 109.265C998.823 91.3006 1071.26 116.396 1132.33 130.466C1196.61 145.277 1270.65 164.125 1343.82 160.471C1435.7 155.88 1506.08 117.844 1599.19 114.564" stroke="url(#paint27_linear)" stroke-miterlimit="10"/>
<path d="M0.410889 109.698C68.4506 111.344 134.858 130.411 203.409 122.183C271.138 114.059 326.076 90.3679 392.161 80.0663C458.702 69.7264 534.281 80.5491 598.079 91.1084C661.367 101.591 721.745 115.59 783.501 128.025C812.635 133.889 833.987 134.13 862.155 126.566C885.05 120.417 904.414 111.487 927.275 105.294C957.775 97.0217 982.069 97.2521 1014.01 103.401C1052.4 110.801 1089.79 119.309 1127.45 127.575C1192.82 141.881 1268.46 159.632 1341.96 155.946C1434.48 151.305 1505.45 113.017 1599.22 109.698" stroke="url(#paint28_linear)" stroke-miterlimit="10"/>
<path d="M0.432861 104.948C69.1055 106.594 135.313 126.572 204.663 118.316C271.049 110.412 324.11 86.6325 388.863 76.5942C455.06 66.3311 532.027 76.7039 596.08 86.4679C660.134 96.2319 721.634 109.507 783.19 122.672C811.636 128.755 832.432 129.616 860.356 122.09C882.496 116.122 900.971 107.312 923.055 101.3C953.389 93.0394 977.305 93.9171 1008.69 100.269C1047.27 108.075 1085.24 116.566 1123.61 124.602C1189.8 138.458 1266.92 155.222 1340.53 151.525C1433.55 146.857 1505 108.338 1599.23 104.998" stroke="url(#paint29_linear)" stroke-miterlimit="10"/>
<path d="M0.455078 100.329C69.7717 101.931 135.602 122.6 205.729 114.323C271.126 106.594 322.534 82.6335 386.387 72.8915C452.495 62.7929 530.295 72.694 594.748 81.7614C659.723 90.8945 721.756 103.615 783.057 117.504C810.925 123.812 831.488 125.14 859.202 117.614C880.742 111.772 898.473 103.017 919.947 97.1205C950.136 88.832 974.03 90.176 1004.94 96.7694C1043.57 104.997 1081.99 113.511 1120.95 121.377C1187.56 134.833 1265.97 150.729 1339.53 147.059C1432.92 142.397 1504.71 103.659 1599.34 100.329" stroke="url(#paint30_linear)" stroke-miterlimit="10"/>
<path d="M0.477539 95.8259C70.427 97.2795 135.691 118.448 206.595 110.148C271.315 102.573 321.612 78.5085 384.7 68.8816C450.597 58.8324 529.418 68.5196 594.038 77.022C659.679 85.6614 721.99 98.0365 783.001 112.677C810.415 119.259 831.089 120.85 858.658 113.275C879.754 107.477 896.93 98.7167 917.993 92.8638C948.071 84.504 972.298 86.0838 1002.84 92.979C1041.39 101.679 1080.1 110.252 1119.49 117.987C1186.31 131.102 1265.63 146.286 1338.89 142.671C1432.5 138.058 1504.47 99.1116 1599.32 95.8259" stroke="url(#paint31_linear)" stroke-miterlimit="10"/>
<path d="M0.510986 91.4377C70.8158 92.7432 135.625 114.142 206.962 105.766C271.46 98.1957 321.457 74.1532 384.345 64.5812C450.175 54.5649 529.351 64.4495 593.993 72.7709C659.868 81.2513 721.979 93.5331 783.068 108.239C810.382 114.822 831.344 116.193 858.724 108.667C879.676 102.908 896.742 94.2242 917.693 88.4481C947.671 80.1871 972.342 81.723 1002.6 88.8156C1040.98 97.8117 1079.73 106.451 1119.29 114.109C1185.79 126.983 1266.14 141.997 1338.83 138.245C1432.31 133.428 1504.75 95.1403 1599.36 91.4541" stroke="url(#paint32_linear)" stroke-miterlimit="10"/>
<path d="M0.532959 87.1206C70.9932 88.3603 135.613 109.901 207.117 101.427C271.515 93.7909 321.768 69.9514 384.7 60.4397C450.53 50.4892 529.529 60.8072 594.071 69.1834C659.735 77.7077 721.579 89.9676 783.09 103.977C841.315 117.235 870.172 96.8462 918.126 84.1311C948.104 76.1828 972.931 77.6309 1002.91 84.7509C1041.13 93.8293 1079.81 102.447 1119.36 110.017C1185.47 122.666 1266.86 137.751 1339.03 133.681C1432.11 128.426 1505.44 91.6955 1599.41 87.2029" stroke="url(#paint33_linear)" stroke-miterlimit="10"/>
<path d="M0.555176 82.8694C71.2264 84.0652 135.691 105.765 207.417 97.2192C271.815 89.5397 322.267 65.9525 385.233 56.5286C451.063 46.6549 529.828 57.3678 594.271 65.7715C659.679 74.3012 721.29 86.5062 783.157 99.8083C840.893 112.227 870.782 92.2001 918.77 80.0609C948.748 72.4582 973.797 73.8624 1003.51 80.9934C1041.55 90.1211 1080.12 98.6728 1119.66 106.111C1185.5 118.503 1267.71 133.428 1339.28 129.084C1431.89 123.467 1506.11 88.3329 1599.4 83.1272" stroke="url(#paint34_linear)" stroke-miterlimit="10"/>
<path d="M0.577393 78.695C71.4929 79.8579 135.857 101.734 207.85 93.149C272.17 85.4804 322.922 62.162 385.932 52.8369C451.763 43.1277 530.273 54.1095 594.593 62.5186C659.69 71.021 721.168 83.1327 783.257 95.6997C840.582 107.29 871.493 87.7075 919.603 76.1333C949.659 68.9091 974.896 70.3133 1004.39 77.4389C1042.21 86.583 1080.71 95.036 1120.18 102.299C1185.85 114.394 1268.56 128.952 1339.64 124.383C1431.8 118.464 1506.88 84.9813 1599.46 79.1338" stroke="url(#paint35_linear)" stroke-miterlimit="10"/>
<path d="M0.599609 74.592C71.8148 75.7439 136.057 97.7897 208.416 89.1996C272.681 81.5749 323.744 58.5198 386.81 49.3811C452.618 39.842 530.728 51.0706 595.026 59.4523C659.768 67.8998 721.057 79.8854 783.401 91.6954C840.293 102.474 872.292 83.407 920.624 72.4582C950.78 65.6234 976.217 67.077 1005.52 74.1806C1043.05 83.3712 1081.56 91.5491 1120.89 98.6784C1186.51 110.439 1269.45 124.46 1340.12 119.682C1431.68 113.522 1507.68 81.7285 1599.44 75.327" stroke="url(#paint36_linear)" stroke-miterlimit="10"/>
<path d="M0.633057 70.5658C72.1703 71.7177 136.391 93.9555 209.105 85.3763C273.314 77.812 324.721 55.0641 387.865 46.1119C453.65 36.7867 531.428 48.1909 595.603 56.5341C660.001 64.8939 721.124 76.7149 783.612 87.757C840.082 97.7404 873.236 79.2382 921.857 68.9531C952.157 62.5406 977.783 64.0766 1006.92 71.1472C1044.22 80.2769 1082.6 88.3016 1121.83 95.1787C1187.49 106.572 1270.42 119.83 1340.71 114.926C1431.68 108.58 1508.54 78.5251 1599.51 71.6245" stroke="url(#paint37_linear)" stroke-miterlimit="10"/>
<path d="M0.655029 66.6273C72.5587 67.7847 136.768 90.2145 209.893 81.7011C274.058 74.23 325.831 51.8112 388.997 43.073C454.749 33.9782 532.116 45.5195 596.236 53.7915C660.156 62.0196 721.257 73.6541 783.812 83.9118C839.882 93.1108 874.257 75.2394 923.211 65.6509C953.678 59.6828 979.504 61.3339 1008.52 68.3936C1045.57 77.436 1083.77 85.2802 1122.88 91.8765C1188.64 102.847 1271.32 115.222 1341.31 110.203C1431.64 103.73 1509.34 75.4478 1599.49 68.1248" stroke="url(#paint38_linear)" stroke-miterlimit="10"/>
<path d="M0.677246 62.7655C72.9806 63.9504 137.245 86.5941 210.792 78.1246C274.913 70.7852 327.064 48.7229 390.296 40.2206C456.004 31.3891 532.948 43.0126 596.924 51.1914C660.401 59.3097 721.435 70.6809 784.012 80.1487C839.694 88.5688 875.357 71.3721 924.677 62.5187C955.332 57.0333 981.358 58.8106 1010.28 65.8099C1047.09 74.7451 1085.13 82.3798 1124.12 88.6566C1190.1 99.205 1272.3 110.532 1342.04 105.425C1431.72 98.843 1510.22 72.3979 1599.52 64.6964" stroke="url(#paint39_linear)" stroke-miterlimit="10"/>
<path d="M0.699463 58.9915C73.4358 60.2093 137.689 83.0724 211.78 74.7182C275.856 67.4884 328.418 45.7992 391.717 37.5601C457.37 29.0194 533.837 40.6813 597.724 48.7558C660.756 56.7261 721.734 67.8121 784.256 76.479C839.56 84.1585 876.589 67.664 926.298 59.573C957.164 54.5539 983.39 56.5231 1012.25 63.4128C1048.8 72.2125 1086.66 79.6139 1125.5 85.5518C1191.73 95.6175 1273.27 105.776 1342.81 100.609C1431.82 94.0267 1511.06 69.3973 1599.52 61.3777" stroke="url(#paint40_linear)" stroke-miterlimit="10"/>
<path d="M0.72168 55.3109C73.9133 56.5726 138.233 79.6551 212.791 71.416C276.9 64.3564 329.873 43.0401 393.249 35.0863C458.835 26.8582 534.769 38.5147 598.656 46.4685C661.222 54.2687 722.156 65.0365 784.611 72.8971C839.538 79.8142 878.01 64.0876 928.13 56.7975C959.218 52.2775 985.633 54.4388 1014.47 61.2955C1050.75 69.9408 1088.42 77.0835 1127.1 82.6501C1193.58 92.2002 1274.3 101.108 1343.69 95.8809C1432 89.26 1511.95 66.5505 1599.57 58.2566" stroke="url(#paint41_linear)" stroke-miterlimit="10"/>
<path d="M0.743896 51.7399C74.3907 53.04 138.789 76.3419 214.001 68.24C278.01 61.3394 331.427 40.44 394.87 32.7879C460.379 24.8834 535.791 36.5125 599.534 44.3072C661.644 51.9209 722.534 62.3322 784.855 69.3919C839.438 75.5794 879.432 60.6153 929.94 54.1645C961.25 50.1546 987.875 52.5189 1016.72 59.3262C1052.73 67.7986 1090.2 74.6626 1128.68 79.8361C1195.6 88.8321 1275.32 96.3471 1344.6 91.1305C1432.22 84.5481 1512.81 63.7474 1599.59 55.2177" stroke="url(#paint42_linear)" stroke-miterlimit="10"/>
<path d="M0.766113 48.2292C74.9459 49.6061 139.466 73.1329 215.211 65.1846C279.209 58.4759 333.093 37.9935 396.58 30.6595C462.033 23.1061 536.879 34.6693 600.533 42.3324C662.177 49.7542 723.022 59.7705 785.177 66.0293C839.438 71.5147 881.008 57.3569 931.894 51.7673C963.438 48.2841 990.263 50.9006 1019.15 57.6147C1054.89 65.8971 1092.15 72.464 1130.43 77.225C1197.76 85.6286 1276.37 91.701 1345.55 86.4789C1432.49 79.9238 1513.65 61.1089 1599.61 52.3817" stroke="url(#paint43_linear)" stroke-miterlimit="10"/>
<path d="M0.78833 44.8337C75.501 46.2819 140.132 70.0336 216.51 62.2608C280.453 55.7497 334.769 35.7005 398.368 28.7012C463.732 21.5044 538 32.9853 601.554 40.4783C662.755 47.6916 723.522 57.2856 785.477 62.7435C839.46 67.4994 882.64 54.1973 933.914 49.4414C965.68 46.4958 992.694 49.3701 1021.68 56.0239C1057.14 64.1003 1094.19 70.3501 1132.24 74.6742C1199.97 82.4416 1277.38 87.0054 1346.53 81.8053C1432.79 75.327 1514.46 58.4978 1599.63 49.595" stroke="url(#paint44_linear)" stroke-miterlimit="10"/>
<path d="M0.810547 41.5425C76.0451 43.0674 140.843 67.044 217.809 59.4577C281.763 53.155 336.535 33.5502 400.211 26.8965C465.486 20.0781 539.166 31.4439 602.676 38.7614C663.443 45.7662 724.122 54.8994 785.877 59.562C839.627 63.6157 884.45 51.1803 936.091 47.3021C968.09 44.894 995.292 48.0426 1024.39 54.5977C1059.57 62.4652 1096.4 68.3923 1134.21 72.2716C1202.4 79.3642 1278.49 82.3702 1347.62 77.2085C1433.11 70.8125 1515.27 56.0129 1599.66 46.962" stroke="url(#paint45_linear)" stroke-miterlimit="10"/>
<path d="M0.832764 38.3555C76.6114 39.9627 141.576 64.1368 219.175 56.7809C283.129 50.6976 338.356 31.5372 402.11 25.2454C467.296 18.8275 540.376 30.0506 603.808 37.1816C664.165 43.9671 724.732 52.612 786.221 56.4847C839.782 59.8582 886.238 48.306 938.211 45.3055C970.41 43.4459 997.824 46.8798 1027.04 53.3526C1061.94 60.9963 1098.55 66.5841 1136.1 70.0007C1204.72 76.3802 1279.46 77.801 1348.59 72.6776C1433.46 66.3913 1515.95 53.6378 1599.6 44.4553" stroke="url(#paint46_linear)" stroke-miterlimit="10"/>
<path d="M0.85498 35.2837C77.1887 36.9732 142.342 61.3942 220.563 54.2302C284.506 48.3663 340.221 29.6666 404.053 23.7644C469.128 17.7304 541.598 28.8274 605.019 35.7609C664.975 42.3434 725.409 50.4563 786.643 53.5446C840.104 56.2434 888.148 45.5907 940.521 43.4734C972.953 42.1624 1000.48 45.8979 1029.97 52.2829C1064.61 59.6989 1100.99 64.9399 1138.27 67.8834C1294.82 80.6588 1448.23 59.1067 1599.76 42.102" stroke="url(#paint47_linear)" stroke-miterlimit="10"/>
<path d="M0.876953 32.3106C77.777 34.0934 143.119 58.7283 221.984 51.7892C285.927 46.1612 342.119 27.9278 406.029 22.3711C470.993 16.7211 542.852 27.6809 606.14 34.4115C665.752 40.7691 726.009 48.3554 786.965 50.6428C840.415 52.6669 889.968 42.9632 942.73 41.7016C975.351 40.9337 1003.11 44.9928 1032.77 51.2846C1067.01 58.5966 1103.37 63.2592 1140.29 65.8373C1292.85 76.4954 1451.98 56.7096 1599.72 39.8201" stroke="url(#paint48_linear)" stroke-miterlimit="10"/>
<path d="M0.899414 29.4582C78.3657 31.3342 143.907 56.183 223.416 49.4744C287.37 44.0603 344.029 26.3151 408.017 21.1314C472.87 15.8819 544.107 26.6936 607.328 33.1993C666.619 39.3155 726.664 46.3642 787.343 47.9056C840.893 49.266 891.845 40.4784 945.006 40.1108C977.816 39.8859 1005.75 44.2633 1035.64 50.4782C1069.66 57.5489 1105.78 61.8111 1142.39 63.9284C1212.12 67.9602 1282.84 64.5263 1352 59.595C1434.99 53.6762 1518.09 47.1815 1599.74 37.6534" stroke="url(#paint49_linear)" stroke-miterlimit="10"/>
<path d="M0.921631 26.721C78.288 28.6574 143.741 53.5501 223.172 47.4174C286.871 42.4806 343.641 25.4265 407.128 20.2538C471.304 15.0262 541.109 25.399 603.775 31.6634C664.354 37.6973 725.72 44.4388 787.731 45.2836C842.78 46.0351 896.419 37.7302 951.346 38.7011C984.5 39.2881 1012.14 44.6418 1042.53 50.588C1074.09 56.7645 1107.42 60.3026 1141.13 61.9756C1212.88 65.5357 1284.04 60.2861 1354.93 55.3328C1436.76 49.6171 1519.33 45.2178 1599.8 35.6622" stroke="url(#paint50_linear)" stroke-miterlimit="10"/>
<path d="M0.932617 24.1044C78.8319 26.134 144.551 51.2352 224.571 45.3384C288.281 40.6429 345.506 24.0386 409.093 19.2444C473.136 14.4392 542.386 24.664 604.963 30.7253C665.253 36.5727 726.386 42.7932 788.075 42.7932C843.446 42.7932 898.273 35.5909 953.656 37.4285C986.854 38.5255 1014.72 44.1865 1045.34 50.0065C1076.7 55.9636 1109.81 59.1287 1143.23 60.3793C1215.21 63.0727 1285.14 56.1446 1356.02 51.3284C1437.32 45.8046 1519.87 43.4514 1599.78 33.7752" stroke="url(#paint51_linear)" stroke-miterlimit="10"/>
<path d="M0.954834 21.6141C79.4426 23.737 145.295 49.0411 225.992 43.3747C289.724 38.8986 347.394 22.7606 411.07 18.3393C474.979 13.8907 543.685 24.0441 606.229 29.908C666.186 35.5415 727.086 41.2024 788.453 40.4016C844.224 39.672 900.128 33.5503 955.976 36.2437C989.219 37.8509 1017.31 43.8135 1048.13 49.5073C1079.22 55.2505 1112.17 58.0426 1145.28 58.8709C1217.45 60.6866 1286.23 52.1129 1357.09 47.4284C1437.87 42.0856 1520.3 41.7894 1599.74 31.9925" stroke="url(#paint52_linear)" stroke-miterlimit="10"/>
<path d="M0.977051 19.25C80.0089 21.4441 146.139 46.9622 227.402 41.5316C291.145 37.2695 349.259 21.5703 413.035 17.544C476.811 13.5177 544.962 23.5341 607.339 29.195C667.151 34.6255 727.763 39.7544 788.797 38.1471C845.056 36.6661 901.915 31.6415 958.23 35.1795C991.539 37.2695 1019.83 43.5557 1050.94 49.1179C1082.05 54.6801 1114.58 57.0717 1147.38 57.4886C1219.55 58.4157 1287.41 48.2348 1358.2 43.6819C1438.52 38.5147 1520.88 40.27 1599.79 30.3304" stroke="url(#paint53_linear)" stroke-miterlimit="10"/>
<path d="M0.988037 17.0119C80.5639 19.3157 146.927 44.9874 228.768 39.8092C292.544 35.7555 351.08 20.5335 414.945 16.8473C478.543 13.1776 546.272 23.1281 608.538 28.597C668.173 33.8301 728.452 38.4214 789.185 36.0242C846 33.7807 903.703 29.8477 960.517 34.2141C993.727 36.7703 1022.35 43.3856 1053.68 48.8217C1084.44 54.1535 1116.97 56.205 1149.41 56.2214C1221.58 56.2653 1288.58 44.5266 1359.26 40.0944C1439.2 35.0807 1521.37 38.8821 1599.79 28.7835" stroke="url(#paint54_linear)" stroke-miterlimit="10"/>
<path d="M0.999268 14.9109C81.1081 17.2915 147.671 43.1771 230.1 38.1964C293.91 34.3566 352.867 19.546 416.81 16.2548C480.342 12.9636 547.393 22.8373 609.671 28.1142C669.183 33.1388 729.162 37.2145 789.541 34.0384C846.966 31.0215 905.413 28.1801 962.749 33.3583C995.947 36.3478 1024.82 43.2978 1056.38 48.6076C1086.99 53.7529 1119.25 55.437 1151.39 55.0639C1223.45 54.2357 1289.75 40.9939 1360.33 36.6659C1439.82 31.7949 1521.77 37.6423 1599.82 27.3408" stroke="url(#paint55_linear)" stroke-miterlimit="10"/>
<path d="M1.02148 12.9417C81.6299 15.4046 148.426 41.4657 231.4 36.7044C295.242 33.0346 354.644 18.7013 418.62 15.7227C482.019 12.7716 548.526 22.6288 610.77 27.7083C670.172 32.541 729.851 36.1065 789.885 32.1679C847.954 28.3611 907.123 26.5948 964.859 32.5684C998.024 35.9967 1027.14 43.2759 1058.98 48.476C1089.4 53.4129 1121.49 54.7732 1153.36 54.0217C1225.23 52.3377 1290.96 37.6588 1361.42 33.4241C1440.53 28.6683 1522.23 36.5453 1599.91 26.0408" stroke="url(#paint56_linear)" stroke-miterlimit="10"/>
<path d="M1.03271 11.1096C82.0853 13.6494 149.126 39.8969 232.632 35.3276C296.508 31.8279 356.243 17.928 420.363 15.2785C483.651 12.6675 549.67 22.5083 611.814 27.4122C671.138 32.1022 730.517 35.1301 790.196 30.4456C848.942 25.8379 908.644 25.1248 966.88 31.8718C999.978 35.7116 1029.37 43.3198 1061.42 48.3993C1091.69 53.1935 1123.6 54.1864 1155.13 53.0783C1226.75 50.5605 1292.02 34.5268 1362.35 30.3469C1441.18 25.6788 1522.56 35.5745 1599.89 24.8176" stroke="url(#paint57_linear)" stroke-miterlimit="10"/>
<path d="M1.0437 9.42554C82.607 12.0256 149.825 38.4487 233.798 34.0604C297.729 30.7253 357.83 17.2367 422.017 14.9109C485.205 12.6235 550.713 22.4643 612.802 27.2147C672.07 31.7511 731.161 34.2744 790.507 28.8603C849.853 23.4462 910.143 23.7643 968.834 31.2574C1001.85 35.4757 1031.53 43.3253 1063.77 48.3828C1093.74 53.0947 1125.7 53.6872 1156.84 52.2226C1228.17 48.9313 1293.08 31.603 1363.26 27.478C1441.75 22.8647 1522.89 34.7626 1599.89 23.715" stroke="url(#paint58_linear)" stroke-miterlimit="10"/>
<path d="M1.11035 7.85669C83.1178 10.5116 150.48 37.1103 234.953 32.892C298.862 29.716 359.318 16.6333 423.583 14.6092C486.626 12.6235 551.713 22.4972 613.735 27.1104C672.97 31.4987 731.783 33.5448 790.784 27.4176C850.897 21.1807 911.542 22.4807 970.655 30.7088C1003.61 35.2836 1033.54 43.4295 1065.96 48.4157C1095.82 53.0069 1127.61 53.2702 1158.43 51.5094C1192.06 49.5841 1224.85 45.1738 1257.14 40.2808C1291.98 35.0094 1327.83 26.9678 1364.13 24.8395C1442.35 20.2482 1523.21 34.1207 1599.9 22.744" stroke="url(#paint59_linear)" stroke-miterlimit="10"/>
<path d="M1.11035 6.48535C83.5175 9.18416 151.002 35.9529 235.963 31.8772C299.928 28.8054 360.706 16.0848 425.049 14.3624C487.992 12.6564 552.612 22.5905 614.578 27.0885C673.813 31.3781 732.393 32.9414 791.051 26.1231C851.818 19.0579 912.863 21.3014 972.409 30.2426C1005.22 35.1794 1035.41 43.5721 1068 48.487C1097.73 52.9686 1129.37 52.9356 1159.9 50.8731C1193.46 48.6132 1226.06 43.8189 1258.16 38.6133C1292.74 33.0072 1328.65 24.5487 1364.94 22.404C1442.91 17.8017 1523.52 33.6216 1599.91 21.8554" stroke="url(#paint60_linear)" stroke-miterlimit="10"/>
<path d="M1.11035 5.24023C83.895 7.98293 151.557 34.9107 236.885 30.9557C300.894 27.9827 361.961 15.646 426.359 14.1705C489.213 12.7278 553.4 22.777 615.322 27.1599C674.568 31.3452 732.937 32.4697 791.251 24.9657C852.717 17.0832 914.04 20.2099 974.008 29.8367C1006.7 35.0808 1037.11 43.7312 1069.86 48.5913C1099.47 52.9796 1130.93 52.6724 1161.23 50.3411C1194.71 47.763 1227.15 42.6067 1259.08 37.1158C1293.43 31.2081 1329.38 22.3766 1365.67 20.1989C1443.39 15.5363 1523.81 33.2816 1599.94 21.093" stroke="url(#paint61_linear)" stroke-miterlimit="10"/>
<path d="M1.11035 4.14868C84.2392 6.89138 152.012 34.0057 237.706 30.1439C301.793 27.2531 363.171 15.2566 427.636 14.0224C490.424 12.8156 554.211 23.0129 616.066 27.308C675.334 31.4166 733.537 32.1242 791.495 23.9784C853.595 15.2511 915.072 19.2006 975.462 29.4638C1008.04 35.0095 1038.65 43.8849 1071.54 48.701C1101.05 53.018 1132.39 52.4695 1162.4 49.8914C1195.85 47.017 1228.1 41.5316 1259.89 35.7774C1294.05 29.5844 1330.03 20.4513 1366.36 18.2242C1443.92 13.4629 1524.14 33.0896 1599.94 20.4184" stroke="url(#paint62_linear)" stroke-miterlimit="10"/>
<path d="M1.11035 3.21606C84.5612 5.95876 152.401 33.2431 238.428 29.4417C302.526 26.6113 364.181 14.9329 428.702 13.8906C491.423 12.8978 554.788 23.2761 616.644 27.5109C675.945 31.57 734.037 31.8992 791.662 23.1225C854.405 13.5615 915.916 18.257 976.75 29.1565C1009.18 34.971 1039.97 44.0493 1072.98 48.8326C1102.4 53.1002 1133.59 52.3432 1163.39 49.5457C1196.79 46.4025 1228.9 40.6209 1260.56 34.6254C1294.57 28.1801 1330.51 18.811 1366.94 16.5236C1444.33 11.6142 1524.45 33.0895 1599.96 19.8587" stroke="url(#paint63_linear)" stroke-miterlimit="10"/>
<path d="M1.11035 2.43726C84.1504 5.17995 151.768 32.4643 237.295 28.9262C304.88 26.1341 370.21 13.5232 438.406 13.781C496.708 14.0005 555.21 23.4628 612.802 27.5329C673.991 31.8554 732.56 31.7347 791.817 22.4809C857.525 12.2451 919.092 17.6263 982.424 29.7984C1010.81 35.2509 1037.86 42.6891 1066.46 47.796C1096.73 53.1991 1129.96 52.6725 1161.11 49.672C1196.45 46.271 1230.28 39.7983 1263.61 33.2158C1297.21 26.5565 1332.93 17.182 1369.16 14.9878C1445.77 10.3746 1525.44 33.15 1599.94 19.4145" stroke="url(#paint64_linear)" stroke-miterlimit="10"/>
<path d="M1.11035 1.82275C84.3835 4.52705 152.001 31.9924 237.762 28.4488C305.368 25.6513 370.999 13.3366 439.172 13.748C497.43 14.1045 555.632 23.8301 613.191 27.9058C674.424 32.2393 732.982 31.8114 791.95 21.9541C858.325 10.8517 919.569 16.8637 983.423 29.6337C1011.68 35.2836 1038.81 42.7877 1067.48 47.9C1097.69 53.3086 1130.77 52.6723 1161.74 49.5018C1197.06 45.8869 1230.76 39.1344 1263.99 32.3764C1297.54 25.5526 1333.25 16.0738 1369.57 13.7699C1446.03 8.95376 1525.8 33.4351 1599.96 19.0359" stroke="url(#paint65_linear)" stroke-miterlimit="10"/>
<path d="M1.11035 1.38403C84.5501 4.04445 152.112 31.6744 238.117 28.0759C305.735 25.2455 371.51 13.1941 439.771 13.7371C498.007 14.1979 555.932 24.2362 613.468 28.3447C674.735 32.733 733.381 32.0364 791.972 21.5867C858.991 9.63955 919.747 16.1562 984.145 29.4637C1012.34 35.2837 1039.53 42.8646 1068.23 48.0373C1098.41 53.4733 1131.21 52.7876 1162.15 49.469C1233.64 41.7894 1297.7 17.747 1369.88 12.8979C1446.21 7.76903 1526.19 33.9014 1599.96 18.7782" stroke="url(#paint66_linear)" stroke-miterlimit="10"/>
<path d="M1.11035 1.10498C84.6833 3.71054 152.223 31.505 238.328 27.8188C305.957 24.9171 371.954 13.1015 440.182 13.7323C498.429 14.2809 556.098 24.6702 613.612 28.8501C674.902 33.3042 733.748 32.4046 792.006 21.39C859.613 8.60351 919.691 15.4986 984.7 29.3438C1012.66 35.2845 1039.92 43.156 1068.68 48.1258C1099.24 53.3972 1131.05 52.9694 1162.33 49.5026C1233.94 41.5597 1297.64 17.4953 1370.08 12.2952C1446.31 6.80979 1526.63 34.5384 1599.91 18.6143" stroke="url(#paint67_linear)" stroke-miterlimit="10"/>
<path d="M1.11035 1C84.7721 3.52877 152.19 31.4878 238.383 27.6645C306.012 24.664 372.098 13.0459 440.46 13.7261C498.718 14.3076 556.165 25.1357 613.668 29.4143C674.957 33.9727 734.114 32.925 792.028 21.3563C860.157 7.73606 919.391 14.878 985.022 29.2498C1044.98 42.3708 1094.38 57.3075 1162.27 49.617C1234.08 41.4822 1297.47 17.6207 1370.17 12.0037C1446.31 6.11787 1527.05 35.344 1600 18.5862" stroke="url(#paint68_linear)" stroke-miterlimit="10"/>
</g>
<defs>
<linearGradient id="paint0_linear" x1="84.415" y1="293" x2="84.5765" y2="276.278" gradientUnits="userSpaceOnUse">
<stop stop-color="#987CE8"/>
<stop offset="1" stop-color="#2FDCDC"/>
</linearGradient>
<linearGradient id="paint1_linear" x1="84.4127" y1="283.84" x2="86.3236" y2="226.348" gradientUnits="userSpaceOnUse">
<stop stop-color="#987CE8"/>
<stop offset="1" stop-color="#2FDCDC"/>
</linearGradient>
<linearGradient id="paint2_linear" x1="84.415" y1="276.431" x2="90.9149" y2="170.539" gradientUnits="userSpaceOnUse">
<stop stop-color="#987CE8"/>
<stop offset="1" stop-color="#2FDCDC"/>
</linearGradient>
<linearGradient id="paint3_linear" x1="84.415" y1="270.598" x2="102.552" y2="94.3094" gradientUnits="userSpaceOnUse">
<stop stop-color="#987CE8"/>
<stop offset="1" stop-color="#2FDCDC"/>
</linearGradient>
<linearGradient id="paint4_linear" x1="84.415" y1="265.944" x2="133.789" y2="-22.2564" gradientUnits="userSpaceOnUse">
<stop stop-color="#987CE8"/>
<stop offset="1" stop-color="#2FDCDC"/>
</linearGradient>
<linearGradient id="paint5_linear" x1="84.415" y1="262.21" x2="183.569" y2="-140.116" gradientUnits="userSpaceOnUse">
<stop stop-color="#987CE8"/>
<stop offset="1" stop-color="#2FDCDC"/>
</linearGradient>
<linearGradient id="paint6_linear" x1="84.415" y1="259.175" x2="261.726" y2="-265.799" gradientUnits="userSpaceOnUse">
<stop stop-color="#987CE8"/>
<stop offset="1" stop-color="#2FDCDC"/>
</linearGradient>
<linearGradient id="paint7_linear" x1="84.4138" y1="256.586" x2="358.554" y2="-375.514" gradientUnits="userSpaceOnUse">
<stop stop-color="#987CE8"/>
<stop offset="1" stop-color="#2FDCDC"/>
</linearGradient>
<linearGradient id="paint8_linear" x1="84.4156" y1="254.204" x2="464.045" y2="-462.221" gradientUnits="userSpaceOnUse">
<stop stop-color="#987CE8"/>
<stop offset="1" stop-color="#2FDCDC"/>
</linearGradient>
<linearGradient id="paint9_linear" x1="84.4682" y1="251.728" x2="566.821" y2="-524.53" gradientUnits="userSpaceOnUse">
<stop stop-color="#987CE8"/>
<stop offset="1" stop-color="#2FDCDC"/>
</linearGradient>
<linearGradient id="paint10_linear" x1="84.4817" y1="248.931" x2="667.165" y2="-569.283" gradientUnits="userSpaceOnUse">
<stop stop-color="#987CE8"/>
<stop offset="1" stop-color="#2FDCDC"/>
</linearGradient>
<linearGradient id="paint11_linear" x1="84.4926" y1="245.609" x2="741.555" y2="-594.665" gradientUnits="userSpaceOnUse">
<stop stop-color="#987CE8"/>
<stop offset="1" stop-color="#2FDCDC"/>
</linearGradient>
<linearGradient id="paint12_linear" x1="84.5039" y1="241.514" x2="794.692" y2="-610.201" gradientUnits="userSpaceOnUse">
<stop stop-color="#987CE8"/>
<stop offset="1" stop-color="#2FDCDC"/>
</linearGradient>
<linearGradient id="paint13_linear" x1="84.5282" y1="236.293" x2="822.501" y2="-620.053" gradientUnits="userSpaceOnUse">
<stop stop-color="#987CE8"/>
<stop offset="1" stop-color="#2FDCDC"/>
</linearGradient>
<linearGradient id="paint14_linear" x1="84.5371" y1="229.973" x2="834.992" y2="-628.123" gradientUnits="userSpaceOnUse">
<stop stop-color="#987CE8"/>
<stop offset="1" stop-color="#2FDCDC"/>
</linearGradient>
<linearGradient id="paint15_linear" x1="84.5463" y1="223.646" x2="847.511" y2="-636.024" gradientUnits="userSpaceOnUse">
<stop stop-color="#987CE8"/>
<stop offset="1" stop-color="#2FDCDC"/>
</linearGradient>
<linearGradient id="paint16_linear" x1="84.5693" y1="217.551" x2="854.759" y2="-642.957" gradientUnits="userSpaceOnUse">
<stop stop-color="#987CE8"/>
<stop offset="1" stop-color="#2FDCDC"/>
</linearGradient>
<linearGradient id="paint17_linear" x1="84.5945" y1="211.614" x2="857.197" y2="-649.186" gradientUnits="userSpaceOnUse">
<stop stop-color="#987CE8"/>
<stop offset="1" stop-color="#2FDCDC"/>
</linearGradient>
<linearGradient id="paint18_linear" x1="84.6037" y1="205.869" x2="855.436" y2="-654.721" gradientUnits="userSpaceOnUse">
<stop stop-color="#987CE8"/>
<stop offset="1" stop-color="#2FDCDC"/>
</linearGradient>
<linearGradient id="paint19_linear" x1="84.6259" y1="200.298" x2="849.875" y2="-659.658" gradientUnits="userSpaceOnUse">
<stop stop-color="#987CE8"/>
<stop offset="1" stop-color="#2FDCDC"/>
</linearGradient>
<linearGradient id="paint20_linear" x1="84.6487" y1="194.939" x2="836.347" y2="-663.329" gradientUnits="userSpaceOnUse">
<stop stop-color="#987CE8"/>
<stop offset="1" stop-color="#2FDCDC"/>
</linearGradient>
<linearGradient id="paint21_linear" x1="84.6715" y1="189.712" x2="827.353" y2="-667.314" gradientUnits="userSpaceOnUse">
<stop stop-color="#987CE8"/>
<stop offset="1" stop-color="#2FDCDC"/>
</linearGradient>
<linearGradient id="paint22_linear" x1="84.6902" y1="184.608" x2="816.284" y2="-670.721" gradientUnits="userSpaceOnUse">
<stop stop-color="#987CE8"/>
<stop offset="1" stop-color="#2FDCDC"/>
</linearGradient>
<linearGradient id="paint23_linear" x1="84.7148" y1="179.679" x2="804.374" y2="-673.712" gradientUnits="userSpaceOnUse">
<stop stop-color="#987CE8"/>
<stop offset="1" stop-color="#2FDCDC"/>
</linearGradient>
<linearGradient id="paint24_linear" x1="84.7394" y1="174.855" x2="791.621" y2="-676.269" gradientUnits="userSpaceOnUse">
<stop stop-color="#987CE8"/>
<stop offset="1" stop-color="#2FDCDC"/>
</linearGradient>
<linearGradient id="paint25_linear" x1="84.7581" y1="170.12" x2="778.56" y2="-678.427" gradientUnits="userSpaceOnUse">
<stop stop-color="#987CE8"/>
<stop offset="1" stop-color="#2FDCDC"/>
</linearGradient>
<linearGradient id="paint26_linear" x1="84.7815" y1="165.479" x2="761.207" y2="-679.37" gradientUnits="userSpaceOnUse">
<stop stop-color="#987CE8"/>
<stop offset="1" stop-color="#2FDCDC"/>
</linearGradient>
<linearGradient id="paint27_linear" x1="84.8011" y1="160.934" x2="748.789" y2="-681.011" gradientUnits="userSpaceOnUse">
<stop stop-color="#987CE8"/>
<stop offset="1" stop-color="#2FDCDC"/>
</linearGradient>
<linearGradient id="paint28_linear" x1="84.8241" y1="156.441" x2="737.681" y2="-682.763" gradientUnits="userSpaceOnUse">
<stop stop-color="#987CE8"/>
<stop offset="1" stop-color="#2FDCDC"/>
</linearGradient>
<linearGradient id="paint29_linear" x1="84.8455" y1="152.047" x2="728.99" y2="-684.893" gradientUnits="userSpaceOnUse">
<stop stop-color="#987CE8"/>
<stop offset="1" stop-color="#2FDCDC"/>
</linearGradient>
<linearGradient id="paint30_linear" x1="84.8724" y1="147.598" x2="721.519" y2="-687.357" gradientUnits="userSpaceOnUse">
<stop stop-color="#987CE8"/>
<stop offset="1" stop-color="#2FDCDC"/>
</linearGradient>
<linearGradient id="paint31_linear" x1="84.8925" y1="143.215" x2="718.038" y2="-690.753" gradientUnits="userSpaceOnUse">
<stop stop-color="#987CE8"/>
<stop offset="1" stop-color="#2FDCDC"/>
</linearGradient>
<linearGradient id="paint32_linear" x1="84.926" y1="138.832" x2="716.619" y2="-694.729" gradientUnits="userSpaceOnUse">
<stop stop-color="#987CE8"/>
<stop offset="1" stop-color="#2FDCDC"/>
</linearGradient>
<linearGradient id="paint33_linear" x1="84.9497" y1="134.36" x2="711.861" y2="-697.857" gradientUnits="userSpaceOnUse">
<stop stop-color="#987CE8"/>
<stop offset="1" stop-color="#2FDCDC"/>
</linearGradient>
<linearGradient id="paint34_linear" x1="84.9702" y1="129.855" x2="704.455" y2="-700.18" gradientUnits="userSpaceOnUse">
<stop stop-color="#987CE8"/>
<stop offset="1" stop-color="#2FDCDC"/>
</linearGradient>
<linearGradient id="paint35_linear" x1="84.9942" y1="125.245" x2="693.38" y2="-701.429" gradientUnits="userSpaceOnUse">
<stop stop-color="#987CE8"/>
<stop offset="1" stop-color="#2FDCDC"/>
</linearGradient>
<linearGradient id="paint36_linear" x1="85.0146" y1="120.643" x2="679.937" y2="-701.703" gradientUnits="userSpaceOnUse">
<stop stop-color="#987CE8"/>
<stop offset="1" stop-color="#2FDCDC"/>
</linearGradient>
<linearGradient id="paint37_linear" x1="85.0498" y1="115.977" x2="663.665" y2="-700.831" gradientUnits="userSpaceOnUse">
<stop stop-color="#987CE8"/>
<stop offset="1" stop-color="#2FDCDC"/>
</linearGradient>
<linearGradient id="paint38_linear" x1="85.0694" y1="111.356" x2="645.317" y2="-698.742" gradientUnits="userSpaceOnUse">
<stop stop-color="#987CE8"/>
<stop offset="1" stop-color="#2FDCDC"/>
</linearGradient>
<linearGradient id="paint39_linear" x1="85.0922" y1="106.692" x2="624.315" y2="-695.165" gradientUnits="userSpaceOnUse">
<stop stop-color="#987CE8"/>
<stop offset="1" stop-color="#2FDCDC"/>
</linearGradient>
<linearGradient id="paint40_linear" x1="85.1133" y1="102.003" x2="600.781" y2="-689.844" gradientUnits="userSpaceOnUse">
<stop stop-color="#987CE8"/>
<stop offset="1" stop-color="#2FDCDC"/>
</linearGradient>
<linearGradient id="paint41_linear" x1="85.1367" y1="97.4318" x2="576.323" y2="-683.139" gradientUnits="userSpaceOnUse">
<stop stop-color="#987CE8"/>
<stop offset="1" stop-color="#2FDCDC"/>
</linearGradient>
<linearGradient id="paint42_linear" x1="85.1589" y1="92.8483" x2="549.722" y2="-674.377" gradientUnits="userSpaceOnUse">
<stop stop-color="#987CE8"/>
<stop offset="1" stop-color="#2FDCDC"/>
</linearGradient>
<linearGradient id="paint43_linear" x1="85.1811" y1="88.421" x2="522.82" y2="-664.109" gradientUnits="userSpaceOnUse">
<stop stop-color="#987CE8"/>
<stop offset="1" stop-color="#2FDCDC"/>
</linearGradient>
<linearGradient id="paint44_linear" x1="85.2033" y1="84.0283" x2="494.47" y2="-651.635" gradientUnits="userSpaceOnUse">
<stop stop-color="#987CE8"/>
<stop offset="1" stop-color="#2FDCDC"/>
</linearGradient>
<linearGradient id="paint45_linear" x1="85.2255" y1="79.8036" x2="466.303" y2="-637.599" gradientUnits="userSpaceOnUse">
<stop stop-color="#987CE8"/>
<stop offset="1" stop-color="#2FDCDC"/>
</linearGradient>
<linearGradient id="paint46_linear" x1="85.2437" y1="75.79" x2="438.876" y2="-622.261" gradientUnits="userSpaceOnUse">
<stop stop-color="#987CE8"/>
<stop offset="1" stop-color="#2FDCDC"/>
</linearGradient>
<linearGradient id="paint47_linear" x1="85.2729" y1="71.752" x2="409.728" y2="-603.959" gradientUnits="userSpaceOnUse">
<stop stop-color="#987CE8"/>
<stop offset="1" stop-color="#2FDCDC"/>
</linearGradient>
<linearGradient id="paint48_linear" x1="85.292" y1="68.8481" x2="392.011" y2="-592.248" gradientUnits="userSpaceOnUse">
<stop stop-color="#987CE8"/>
<stop offset="1" stop-color="#2FDCDC"/>
</linearGradient>
<linearGradient id="paint49_linear" x1="85.3144" y1="65.7048" x2="370.374" y2="-576.448" gradientUnits="userSpaceOnUse">
<stop stop-color="#987CE8"/>
<stop offset="1" stop-color="#2FDCDC"/>
</linearGradient>
<linearGradient id="paint50_linear" x1="85.3384" y1="63.1461" x2="353.418" y2="-563.239" gradientUnits="userSpaceOnUse">
<stop stop-color="#987CE8"/>
<stop offset="1" stop-color="#2FDCDC"/>
</linearGradient>
<linearGradient id="paint51_linear" x1="85.3476" y1="60.9832" x2="339.881" y2="-552.182" gradientUnits="userSpaceOnUse">
<stop stop-color="#987CE8"/>
<stop offset="1" stop-color="#2FDCDC"/>
</linearGradient>
<linearGradient id="paint52_linear" x1="85.3669" y1="59.1206" x2="328.777" y2="-542.738" gradientUnits="userSpaceOnUse">
<stop stop-color="#987CE8"/>
<stop offset="1" stop-color="#2FDCDC"/>
</linearGradient>
<linearGradient id="paint53_linear" x1="85.3903" y1="57.5491" x2="319.43" y2="-534.471" gradientUnits="userSpaceOnUse">
<stop stop-color="#987CE8"/>
<stop offset="1" stop-color="#2FDCDC"/>
</linearGradient>
<linearGradient id="paint54_linear" x1="85.4007" y1="56.2227" x2="311.899" y2="-527.643" gradientUnits="userSpaceOnUse">
<stop stop-color="#987CE8"/>
<stop offset="1" stop-color="#2FDCDC"/>
</linearGradient>
<linearGradient id="paint55_linear" x1="85.4131" y1="55.1148" x2="312.256" y2="-529.133" gradientUnits="userSpaceOnUse">
<stop stop-color="#987CE8"/>
<stop offset="1" stop-color="#2FDCDC"/>
</linearGradient>
<linearGradient id="paint56_linear" x1="85.4388" y1="54.2159" x2="322.836" y2="-541.384" gradientUnits="userSpaceOnUse">
<stop stop-color="#987CE8"/>
<stop offset="1" stop-color="#2FDCDC"/>
</linearGradient>
<linearGradient id="paint57_linear" x1="85.4483" y1="53.4908" x2="333.902" y2="-553.555" gradientUnits="userSpaceOnUse">
<stop stop-color="#987CE8"/>
<stop offset="1" stop-color="#2FDCDC"/>
</linearGradient>
<linearGradient id="paint58_linear" x1="85.4587" y1="52.9314" x2="345.27" y2="-565.451" gradientUnits="userSpaceOnUse">
<stop stop-color="#987CE8"/>
<stop offset="1" stop-color="#2FDCDC"/>
</linearGradient>
<linearGradient id="paint59_linear" x1="85.5224" y1="52.5179" x2="357.13" y2="-577.194" gradientUnits="userSpaceOnUse">
<stop stop-color="#987CE8"/>
<stop offset="1" stop-color="#2FDCDC"/>
</linearGradient>
<linearGradient id="paint60_linear" x1="85.523" y1="52.2166" x2="368.151" y2="-587.717" gradientUnits="userSpaceOnUse">
<stop stop-color="#987CE8"/>
<stop offset="1" stop-color="#2FDCDC"/>
</linearGradient>
<linearGradient id="paint61_linear" x1="85.5248" y1="52.0169" x2="379.002" y2="-597.646" gradientUnits="userSpaceOnUse">
<stop stop-color="#987CE8"/>
<stop offset="1" stop-color="#2FDCDC"/>
</linearGradient>
<linearGradient id="paint62_linear" x1="85.5248" y1="51.8889" x2="389.076" y2="-606.512" gradientUnits="userSpaceOnUse">
<stop stop-color="#987CE8"/>
<stop offset="1" stop-color="#2FDCDC"/>
</linearGradient>
<linearGradient id="paint63_linear" x1="85.5254" y1="51.84" x2="398.368" y2="-614.387" gradientUnits="userSpaceOnUse">
<stop stop-color="#987CE8"/>
<stop offset="1" stop-color="#2FDCDC"/>
</linearGradient>
<linearGradient id="paint64_linear" x1="85.5248" y1="51.9073" x2="407.31" y2="-621.639" gradientUnits="userSpaceOnUse">
<stop stop-color="#987CE8"/>
<stop offset="1" stop-color="#2FDCDC"/>
</linearGradient>
<linearGradient id="paint65_linear" x1="85.5254" y1="51.9298" x2="414.068" y2="-627.021" gradientUnits="userSpaceOnUse">
<stop stop-color="#987CE8"/>
<stop offset="1" stop-color="#2FDCDC"/>
</linearGradient>
<linearGradient id="paint66_linear" x1="85.5254" y1="52.0436" x2="419.946" y2="-631.518" gradientUnits="userSpaceOnUse">
<stop stop-color="#987CE8"/>
<stop offset="1" stop-color="#2FDCDC"/>
</linearGradient>
<linearGradient id="paint67_linear" x1="85.523" y1="52.1022" x2="423.549" y2="-634.235" gradientUnits="userSpaceOnUse">
<stop stop-color="#987CE8"/>
<stop offset="1" stop-color="#2FDCDC"/>
</linearGradient>
<linearGradient id="paint68_linear" x1="85.5277" y1="51.7192" x2="420.578" y2="-632.343" gradientUnits="userSpaceOnUse">
<stop stop-color="#987CE8"/>
<stop offset="1" stop-color="#2FDCDC"/>
</linearGradient>
</defs>
</svg>
