<svg width="81" height="83" viewBox="0 0 81 83" fill="none" xmlns="http://www.w3.org/2000/svg">
<g filter="url(#filter0_d)">
<path d="M31.0769 52.8803C31.0769 51.2943 32.6037 50.0085 34.4872 50.0085H45.8547C47.7381 50.0085 49.2649 51.2943 49.2649 52.8803V54.7949H31.0769V52.8803Z" fill="url(#paint0_linear)"/>
<path d="M37.1343 34.1988H43.865V48.7821H37.1343V34.1988Z" fill="url(#paint1_linear)"/>
<g filter="url(#filter1_bii)">
<path d="M20.3076 22.9808C20.3076 21.1221 21.8144 19.6154 23.673 19.6154H57.3269C59.1855 19.6154 60.6922 21.1221 60.6922 22.9808V42.0513C60.6922 43.9099 59.1855 45.4167 57.3269 45.4167H23.673C21.8144 45.4167 20.3076 43.9099 20.3076 42.0513V22.9808Z" fill="#25CCDB" fill-opacity="0.1"/>
</g>
<rect x="28.1602" y="24.1025" width="11.218" height="15.7051" fill="white"/>
<rect x="42.7437" y="24.1025" width="11.2179" height="2.24359" fill="white"/>
<rect x="42.7437" y="28.5895" width="11.2179" height="2.24359" fill="white"/>
<rect x="42.7437" y="33.0769" width="11.2179" height="2.24359" fill="white"/>
<rect x="42.7437" y="37.5642" width="11.2179" height="2.24359" fill="white"/>
</g>
<defs>
<filter id="filter0_d" x="-17" y="-12" width="115" height="115" filterUnits="userSpaceOnUse" color-interpolation-filters="sRGB">
<feFlood flood-opacity="0" result="BackgroundImageFix"/>
<feColorMatrix in="SourceAlpha" type="matrix" values="0 0 0 0 0 0 0 0 0 0 0 0 0 0 0 0 0 0 127 0"/>
<feOffset dy="8"/>
<feGaussianBlur stdDeviation="10"/>
<feColorMatrix type="matrix" values="0 0 0 0 0.145098 0 0 0 0 0.8 0 0 0 0 0.858824 0 0 0 0.25 0"/>
<feBlend mode="normal" in2="BackgroundImageFix" result="effect1_dropShadow"/>
<feBlend mode="normal" in="SourceGraphic" in2="effect1_dropShadow" result="shape"/>
</filter>
<filter id="filter1_bii" x="16.3743" y="15.6821" width="48.2513" height="33.6679" filterUnits="userSpaceOnUse" color-interpolation-filters="sRGB">
<feFlood flood-opacity="0" result="BackgroundImageFix"/>
<feGaussianBlur in="BackgroundImage" stdDeviation="1.96667"/>
<feComposite in2="SourceAlpha" operator="in" result="effect1_backgroundBlur"/>
<feBlend mode="normal" in="SourceGraphic" in2="effect1_backgroundBlur" result="shape"/>
<feColorMatrix in="SourceAlpha" type="matrix" values="0 0 0 0 0 0 0 0 0 0 0 0 0 0 0 0 0 0 127 0" result="hardAlpha"/>
<feOffset dx="-1.96667" dy="1.96667"/>
<feGaussianBlur stdDeviation="0.983333"/>
<feComposite in2="hardAlpha" operator="arithmetic" k2="-1" k3="1"/>
<feColorMatrix type="matrix" values="0 0 0 0 1 0 0 0 0 1 0 0 0 0 1 0 0 0 0.1 0"/>
<feBlend mode="normal" in2="shape" result="effect2_innerShadow"/>
<feColorMatrix in="SourceAlpha" type="matrix" values="0 0 0 0 0 0 0 0 0 0 0 0 0 0 0 0 0 0 127 0" result="hardAlpha"/>
<feOffset dx="1.96667" dy="-1.96667"/>
<feGaussianBlur stdDeviation="0.983333"/>
<feComposite in2="hardAlpha" operator="arithmetic" k2="-1" k3="1"/>
<feColorMatrix type="matrix" values="0 0 0 0 0.145098 0 0 0 0 0.8 0 0 0 0 0.858824 0 0 0 0.1 0"/>
<feBlend mode="normal" in2="effect2_innerShadow" result="effect3_innerShadow"/>
</filter>
<linearGradient id="paint0_linear" x1="49.2649" y1="50.0085" x2="31.7172" y2="56.5204" gradientUnits="userSpaceOnUse">
<stop stop-color="#53F1FF"/>
<stop offset="1" stop-color="#25CCDB"/>
</linearGradient>
<linearGradient id="paint1_linear" x1="40.4997" y1="43.1732" x2="37.1343" y2="48.7821" gradientUnits="userSpaceOnUse">
<stop stop-color="#53F1FF"/>
<stop offset="1" stop-color="#25CCDB"/>
</linearGradient>
</defs>
</svg>
