<svg width="22" height="22" viewBox="0 0 22 22" fill="none" xmlns="http://www.w3.org/2000/svg">
<g clip-path="url(#clip0_1_5869)">
<path d="M11 0.458008C4.9225 0.458008 0 5.29801 0 11.2673C0 16.0441 3.1515 20.0948 7.52125 21.523C8.07125 21.6248 8.27292 21.2902 8.27292 21.0033C8.27292 20.7466 8.26375 20.0664 8.25917 19.1653C5.19933 19.8171 4.554 17.7152 4.554 17.7152C4.0535 16.4676 3.33025 16.1339 3.33025 16.1339C2.33383 15.4638 3.40725 15.4776 3.40725 15.4776C4.51183 15.5528 5.09208 16.5913 5.09208 16.5913C6.07292 18.2441 7.667 17.7665 8.29583 17.4906C8.39483 16.7912 8.67808 16.3154 8.9925 16.045C6.54958 15.7746 3.982 14.8451 3.982 10.7036C3.982 9.52384 4.40825 8.55951 5.11408 7.80326C4.99033 7.53009 4.61908 6.43101 5.21033 4.94234C5.21033 4.94234 6.13158 4.65267 8.23533 6.05059C9.11533 5.81042 10.0503 5.69126 10.9853 5.68576C11.9203 5.69126 12.8553 5.81042 13.7353 6.05059C15.8253 4.65267 16.7466 4.94234 16.7466 4.94234C17.3378 6.43101 16.9666 7.53009 16.8566 7.80326C17.5578 8.55951 17.9841 9.52384 17.9841 10.7036C17.9841 14.8561 15.4128 15.77 12.9653 16.0358C13.3503 16.3603 13.7078 17.0231 13.7078 18.036C13.7078 19.4825 13.6941 20.6448 13.6941 20.9959C13.6941 21.2792 13.8866 21.6174 14.4503 21.5093C18.8512 20.0903 22 16.0368 22 11.2673C22 5.29801 17.0748 0.458008 11 0.458008Z" fill="url(#paint0_linear_1_5869)"/>
</g>
<defs>
<linearGradient id="paint0_linear_1_5869" x1="1.16154" y1="21.5423" x2="24.8804" y2="19.9394" gradientUnits="userSpaceOnUse">
<stop stop-color="#987CE8"/>
<stop offset="1" stop-color="#2FDCDC"/>
</linearGradient>
<clipPath id="clip0_1_5869">
<rect width="22" height="22" fill="white" transform="translate(0 -0.000244141)"/>
</clipPath>
</defs>
</svg>
