<svg width="1600" height="293" viewBox="0 0 1600 293" fill="none" xmlns="http://www.w3.org/2000/svg">
<g opacity="0.5">
<path d="M0 292C532.948 292 1065.9 292 1598.85 292" stroke="url(#paint0_linear_1_11223)" stroke-miterlimit="10"/>
<path d="M0 283.837C269.872 283.898 539.61 282.439 809.415 280.787C926.153 280.069 1043.69 280.305 1160.42 281.819C1306.53 283.711 1452.72 281.928 1598.8 283.837" stroke="url(#paint1_linear_1_11223)" stroke-miterlimit="10"/>
<path d="M0 275.796C76.467 275.796 152.956 276.087 229.412 275.944C297.741 275.818 365.913 273.081 434.22 272.609C561.461 271.732 688.68 272.752 815.911 271.715C928.84 270.794 1042.94 268.353 1155.79 272.077C1221.56 274.271 1286.66 275.27 1352.49 276.175C1434.65 277.305 1516.72 274.238 1598.85 275.796" stroke="url(#paint2_linear_1_11223)" stroke-miterlimit="10"/>
<path d="M0 267.864C75.3678 267.864 150.935 268.489 226.281 267.814C297.085 267.178 367.479 262.719 438.228 261.572C565.714 259.504 692.2 265.412 819.553 264.359C931.616 263.448 1042.09 256.054 1154.28 262.669C1219.85 266.536 1283.4 269.564 1349.45 270.447C1432.72 271.545 1515.58 266.207 1598.85 267.864" stroke="url(#paint3_linear_1_11223)" stroke-miterlimit="10"/>
<path d="M0 260.086C74.0021 260.086 148.548 261.084 222.495 259.708C296.441 258.331 369.333 251.995 443.058 249.949C510.076 248.089 576.151 248.589 642.814 252.637C702.559 256.268 760.595 258.89 820.829 258.495C873.625 258.144 923.089 254.184 975.229 250.492C1034.9 246.263 1096.33 248.238 1155.44 253.624C1220.51 259.559 1281.87 265.237 1348.32 265.884C1432.12 266.707 1514.98 258.665 1598.85 260.086" stroke="url(#paint4_linear_1_11223)" stroke-miterlimit="10"/>
<path d="M0 252.417C72.4033 252.417 145.906 253.761 218.187 251.611C295.42 249.318 371.343 241.013 448.409 237.898C514.579 235.188 581.19 237.045 646.322 243.416C704.469 249.022 760.684 254.03 820.119 253.8C875.157 253.586 924.954 246.702 978.382 241.134C1039.03 234.815 1099.04 237.212 1158.76 244.875C1222.77 253.103 1281.86 261.968 1348.76 262.203C1432.71 262.505 1514.75 251.496 1598.85 252.423" stroke="url(#paint5_linear_1_11223)" stroke-miterlimit="10"/>
<path d="M-67 277.668C3.69339 277.635 76.1189 279.314 146.568 276.379C227.443 273.038 306.453 262.731 387.028 258.425C454.646 254.816 517.134 258.173 582.353 267.24C638.191 275.008 692.274 282.786 750.843 282.802C808.756 282.802 860.275 272.462 915.235 264.914C977.845 256.319 1035.58 258.82 1096.76 269.204C1159.03 279.769 1216.2 292.243 1283.46 291.968C1367.29 291.595 1447.78 277.416 1531.85 277.668" stroke="url(#paint6_linear_1_11223)" stroke-miterlimit="10"/>
<path d="M0 237.442C68.9058 237.393 140.243 239.258 208.738 235.648C293.321 231.194 375.285 218.896 459.568 213.345C528.13 208.83 587.642 213.657 651.807 225.736C704.747 235.703 756.742 246.504 814.356 246.844C875.246 247.206 930.139 233.004 986.454 223.443C1051.49 212.401 1107.01 214.749 1169.86 228.205C1229.7 241.019 1285.5 257.469 1353.06 256.548C1436.58 255.407 1514.96 237.969 1598.82 237.442" stroke="url(#paint7_linear_1_11223)" stroke-miterlimit="10"/>
<path d="M0 230.136C67.1404 230.07 137.367 232.056 204.008 227.848C292.211 222.281 377.139 208.052 464.931 201.261C534.88 195.847 591.018 202.045 653.828 217.306C703.503 229.373 753.4 243.312 810.215 244.047C874.08 244.864 933.381 226.417 990.995 215.078C1021.17 209.171 1052.98 203.636 1085.88 204.909C1118.08 206.159 1148.57 212.857 1176.73 220.268C1233.49 235.171 1288.78 255.687 1356.32 254.118C1439.48 252.182 1515.24 231.496 1598.86 230.152" stroke="url(#paint8_linear_1_11223)" stroke-miterlimit="10"/>
<path d="M0.0548096 222.956C65.5631 222.873 134.646 224.909 199.466 220.213C291.034 213.598 378.615 197.531 469.66 189.566C541.208 183.302 594.104 190.757 655.215 209.16C701.548 223.115 749.358 240.169 805.662 241.326C872.28 242.692 936.678 219.906 995.392 207.01C1026.15 200.252 1060.07 193.126 1094.42 194.695C1126.62 196.165 1156.79 204.196 1183.71 212.523C1237.39 229.132 1292.12 253.789 1359.83 251.589C1442.64 248.891 1515.47 225.062 1598.87 222.956" stroke="url(#paint9_linear_1_11223)" stroke-miterlimit="10"/>
<path d="M0.0664062 215.901C64.0091 215.803 132.071 217.838 195.237 212.797C289.791 205.243 379.726 187.482 473.591 178.453C509.332 175.019 543.208 173.033 578.216 179.056C606.739 183.966 631.832 192.583 656.037 201.294C699.339 216.867 745.051 236.839 801.221 238.403C870.282 240.328 939.854 213.411 999.522 199.198C1030.81 191.744 1066.82 183.11 1102.48 184.936C1134.82 186.582 1164.59 195.836 1190.36 204.975C1241.19 222.989 1295.26 251.502 1363.34 248.743C1445.84 245.391 1515.66 218.611 1598.91 215.874" stroke="url(#paint10_linear_1_11223)" stroke-miterlimit="10"/>
<path d="M0.0776367 208.962C62.6769 208.858 129.817 210.882 191.528 205.61C288.48 197.327 380.125 178.041 476.356 168.161C512.219 164.481 545.994 162.199 580.825 169.034C609.082 174.612 633.165 184.184 656.193 193.751C696.952 210.662 740.754 233.141 797.202 235.034C833.276 236.246 869.55 226.948 900.705 219.077C935.269 210.344 968.5 200.394 1003.05 191.65C1034.81 183.619 1072.56 173.767 1109.42 175.824C1142 177.64 1171.3 187.837 1196.15 197.656C1244.65 216.855 1297.7 248.594 1366.42 245.379C1448.79 241.539 1515.68 212.094 1598.92 208.94" stroke="url(#paint11_linear_1_11223)" stroke-miterlimit="10"/>
<path d="M0.0888062 202.15C61.5666 202.045 127.996 204.075 188.519 198.705C287.181 189.956 379.892 169.353 477.733 158.859C513.429 155.019 547.46 152.567 581.935 159.89C610.159 165.886 633.52 176.281 655.715 186.505C694.776 204.492 736.923 228.836 794.06 230.937C831.122 232.286 868.451 222.215 900.094 213.888C935.813 204.481 970.044 193.773 1005.76 184.355C1037.96 175.858 1076.82 165.233 1114.67 167.4C1147.59 169.287 1176.39 180.12 1200.57 190.504C1247.57 210.685 1299 244.7 1368.82 241.271C1451.19 237.229 1515.53 205.419 1598.93 202.172" stroke="url(#paint12_linear_1_11223)" stroke-miterlimit="10"/>
<path d="M0.110962 195.457C60.7227 195.37 126.742 197.438 186.376 192.111C285.871 183.225 378.837 161.541 477.433 150.762C512.641 146.923 547.305 144.421 581.291 151.794C609.748 157.965 632.787 168.919 654.572 179.577C693.01 198.414 733.914 223.735 792.25 225.775C830.134 227.103 867.562 216.927 899.65 208.222C936.124 198.348 970.987 187.092 1007.45 177.207C1040.06 168.365 1079.09 157.57 1117.71 159.72C1151.02 161.574 1179.34 172.605 1203.21 183.433C1249.84 204.58 1298.82 239.456 1370.28 236.06C1452.85 232.138 1515.25 198.37 1599 195.468" stroke="url(#paint13_linear_1_11223)" stroke-miterlimit="10"/>
<path d="M0.12207 188.875C60.5118 188.689 126.32 191.014 185.699 185.584C284.517 176.527 376.295 154.196 474.113 143.165C509.221 139.21 543.863 136.841 577.827 144.125C606.695 150.329 630.189 161.415 652.296 172.205C691.445 191.316 732.782 216.96 791.884 219.352C830.034 220.893 867.24 210.844 899.473 202.002C936.002 191.974 970.799 180.499 1007.32 170.466C1040.08 161.459 1078.91 150.812 1117.83 153.116C1151.36 155.101 1179.5 166.155 1203.42 177.103C1250.24 198.546 1298.28 232.961 1370.31 229.763C1453.12 226.099 1514.87 191.409 1598.97 188.875" stroke="url(#paint14_linear_1_11223)" stroke-miterlimit="10"/>
<path d="M0.133179 182.44C60.7783 182.1 126.386 185.035 185.977 179.226C283.04 169.763 372.753 147.065 468.784 135.644C504.313 131.415 538.045 129.215 572.498 136.549C601.887 142.797 626.214 153.768 649.131 164.464C689.58 183.367 732.66 209.269 791.761 212.533C829.679 214.628 867.018 204.552 898.973 195.715C935.058 185.737 969.333 174.25 1005.41 164.261C1038.11 155.205 1076.93 144.64 1115.79 147.377C1149.23 149.731 1177.78 160.943 1202.03 171.771C1249.1 192.78 1298.53 226.548 1369.69 223.443C1452.7 219.817 1514.65 184.93 1598.95 182.44" stroke="url(#paint15_linear_1_11223)" stroke-miterlimit="10"/>
<path d="M0.155273 176.116C61.1446 175.71 126.575 179.462 186.532 173.313C281.619 163.56 368.989 140.565 462.999 128.881C498.828 124.416 531.771 122.425 566.613 129.666C596.458 135.869 621.762 146.555 645.534 157.169C687.337 175.82 732.404 201.628 791.45 205.682C829.023 208.266 866.074 198.397 897.74 189.599C933.215 179.725 966.768 168.31 1002.22 158.442C1034.82 149.369 1073.28 139.106 1111.96 142.233C1145.43 144.942 1174.5 156.204 1199.29 166.917C1246.98 187.487 1298.03 220.41 1368.64 217.349C1452.02 213.74 1514.32 178.628 1598.98 176.149" stroke="url(#paint16_linear_1_11223)" stroke-miterlimit="10"/>
<path d="M0.177673 169.912C61.5889 169.522 126.986 174.267 187.365 167.805C280.275 157.871 365.103 134.641 456.903 122.754C492.877 118.097 525.199 116.347 560.329 123.379C590.707 129.457 616.955 139.835 641.648 150.258C685.194 168.573 731.838 194.009 791.051 198.809C828.18 201.815 864.576 192.374 895.931 183.636C930.628 173.96 963.327 162.644 998.002 152.956C1030.48 143.878 1068.2 134.125 1106.65 137.597C1140.27 140.642 1169.93 151.859 1195.47 162.424C1244.11 182.539 1296.99 214.453 1367.22 211.409C1451.11 207.772 1513.88 172.424 1599.06 169.928" stroke="url(#paint17_linear_1_11223)" stroke-miterlimit="10"/>
<path d="M0.18866 163.828C62.0995 163.521 127.475 169.407 188.397 162.665C278.976 152.644 361.106 129.205 450.541 117.252C486.493 112.436 518.37 110.938 553.678 117.663C584.6 123.555 611.769 133.571 637.473 143.675C682.996 161.574 731.061 186.401 790.496 191.892C862.222 198.523 934.703 164.009 992.827 147.74C1025.18 138.678 1061.88 129.6 1099.99 133.401C1133.88 136.785 1164.17 147.893 1190.58 158.299C1240.46 177.942 1295.31 208.715 1365.37 205.654C1449.87 201.968 1513.25 166.363 1599.03 163.828" stroke="url(#paint18_linear_1_11223)" stroke-miterlimit="10"/>
<path d="M0.210999 157.871C62.6659 157.701 128.052 164.848 189.608 157.871C277.755 147.844 357.053 124.295 444.002 112.304C479.831 107.367 511.397 106.138 546.805 112.474C578.294 118.118 606.407 127.69 633.121 137.476C680.62 154.865 730.117 178.864 789.852 185.035C860.49 192.319 929.851 158.803 986.898 142.797C1018.44 133.96 1055.22 125.052 1092.29 129.605C1126.71 133.828 1157.03 144.07 1184.94 154.492C1236.25 173.636 1293.21 203.164 1363.27 200.07C1448.5 196.313 1512.55 160.438 1599.06 157.833" stroke="url(#paint19_linear_1_11223)" stroke-miterlimit="10"/>
<path d="M0.233093 152.029C63.2765 152.029 128.729 160.548 190.973 153.313C276.611 143.357 353.001 119.709 437.384 107.784C583.945 87.0548 660.401 163.582 789.141 178.228C858.535 186.132 924.388 153.823 980.403 138.14C1011.8 129.364 1047.15 121.371 1083.76 126.182C1118.61 130.762 1149.65 140.779 1178.68 151.004C1231.59 169.654 1290.76 197.838 1360.96 194.695C1446.98 190.855 1511.79 154.701 1599.09 152.029" stroke="url(#paint20_linear_1_11223)" stroke-miterlimit="10"/>
<path d="M0.255371 146.314C63.9094 146.544 129.473 156.462 192.461 149.013C275.545 139.188 349.015 115.486 430.767 103.665C574.296 82.9192 661.711 155.776 788.375 171.47C856.57 179.928 918.47 149.051 973.464 133.67C1004.73 124.926 1038.54 117.987 1074.62 123.017C1109.94 127.954 1141.76 137.718 1171.96 147.729C1226.57 165.831 1287.99 192.66 1358.5 189.445C1445.36 185.491 1510.98 149.073 1599.12 146.314" stroke="url(#paint21_linear_1_11223)" stroke-miterlimit="10"/>
<path d="M0.277344 140.718C64.5643 141.184 130.261 152.55 194.037 144.914C274.579 135.271 345.039 111.541 424.26 99.8794C564.747 79.194 662.977 148.069 787.587 164.81C854.56 173.806 912.252 144.448 966.28 129.369C997.435 120.675 1029.57 114.849 1065.1 120.044C1100.9 125.304 1133.55 134.854 1164.95 144.618C1221.31 162.171 1284.99 187.602 1355.85 184.316C1443.57 180.24 1510.05 143.549 1599.08 140.696" stroke="url(#paint22_linear_1_11223)" stroke-miterlimit="10"/>
<path d="M0.299683 135.244C65.2084 135.951 131.094 148.771 195.714 140.976C273.769 131.552 341.32 107.811 417.987 96.3467C555.488 75.782 664.22 140.521 786.787 158.266C852.551 167.788 905.912 139.994 959.018 125.205C990.04 116.566 1020.61 111.887 1055.55 117.268C1091.86 122.863 1125.35 132.172 1157.93 141.694C1216.05 158.699 1281.99 182.725 1353.29 179.357C1441.93 175.166 1509.23 138.217 1599.14 135.244" stroke="url(#paint23_linear_1_11223)" stroke-miterlimit="10"/>
<path d="M0.32196 129.896C65.8302 130.839 131.938 145.079 197.302 137.153C272.958 127.976 337.656 104.241 411.88 93.0012C546.661 72.5955 665.475 133.121 786.055 151.859C850.619 161.898 899.639 135.667 951.879 121.141C982.768 112.557 1011.84 109.024 1046.11 114.559C1082.92 120.494 1117.26 129.589 1151 138.848C1210.84 155.271 1278.97 177.942 1350.76 174.503C1440.28 170.197 1508.42 132.946 1599.21 129.907" stroke="url(#paint24_linear_1_11223)" stroke-miterlimit="10"/>
<path d="M0.344177 124.663C66.5075 125.831 132.771 141.437 198.934 133.401C272.314 124.487 334.281 100.769 406.196 89.7703C538.389 69.5512 666.707 125.875 785.266 145.606C848.754 156.171 893.388 131.393 944.906 117.159C975.695 108.657 1003.24 106.188 1036.94 111.882C1074.22 118.157 1109.4 127.071 1144.24 136.062C1205.72 151.92 1275.95 173.258 1348.24 169.731C1438.61 165.315 1507.54 127.795 1599.17 124.663" stroke="url(#paint25_linear_1_11223)" stroke-miterlimit="10"/>
<path d="M0.366211 119.555C67.1513 120.916 133.603 137.805 200.511 129.687C271.792 121.042 331.194 97.3229 400.955 86.5825C468.628 76.1603 540.62 87.9265 603.83 100.499C664.786 112.627 722.733 128.535 784.6 139.533C847.288 150.679 887.27 127.07 938.4 113.203C1006.3 94.7997 1075.83 118.14 1137.98 133.274C1200.94 148.589 1273.15 168.655 1345.92 165.051C1437.08 160.542 1506.78 122.759 1599.21 119.55" stroke="url(#paint26_linear_1_11223)" stroke-miterlimit="10"/>
<path d="M0.38855 114.564C67.7954 116.083 134.259 134.141 202.021 125.963C271.404 117.581 328.44 93.8785 396.325 83.374C463.376 72.9846 537.267 84.2681 600.777 95.7819C662.966 107.06 722.156 121.953 784.011 133.67C845.867 145.386 881.996 122.935 932.471 109.265C998.823 91.3003 1071.26 116.396 1132.33 130.466C1196.61 145.277 1270.65 164.124 1343.82 160.471C1435.7 155.88 1506.08 117.844 1599.19 114.564" stroke="url(#paint27_linear_1_11223)" stroke-miterlimit="10"/>
<path d="M0.410828 109.699C68.4506 111.344 134.858 130.412 203.409 122.183C271.138 114.06 326.076 90.3682 392.161 80.0666C458.702 69.7266 534.281 80.5493 598.079 91.1087C661.367 101.591 721.745 115.59 783.501 128.025C812.635 133.889 833.987 134.131 862.155 126.566C885.05 120.417 904.414 111.487 927.275 105.294C957.775 97.0219 982.069 97.2523 1014.01 103.401C1052.4 110.801 1089.79 119.309 1127.45 127.576C1192.82 141.881 1268.46 159.632 1341.96 155.946C1434.48 151.305 1505.45 113.017 1599.22 109.699" stroke="url(#paint28_linear_1_11223)" stroke-miterlimit="10"/>
<path d="M0.432983 104.948C69.1056 106.594 135.313 126.572 204.663 118.316C271.049 110.412 324.11 86.6327 388.864 76.5945C455.06 66.3313 532.027 76.7042 596.081 86.4682C660.134 96.2322 721.634 109.507 783.19 122.672C811.636 128.755 832.432 129.616 860.356 122.09C882.496 116.122 900.971 107.313 923.056 101.301C953.389 93.0397 977.305 93.9173 1008.69 100.269C1047.27 108.075 1085.24 116.567 1123.61 124.603C1189.8 138.459 1266.92 155.222 1340.53 151.525C1433.55 146.857 1505 108.338 1599.23 104.998" stroke="url(#paint29_linear_1_11223)" stroke-miterlimit="10"/>
<path d="M0.455139 100.33C69.7717 101.932 135.602 122.601 205.729 114.323C271.126 106.594 322.534 82.634 386.388 72.892C452.495 62.7934 530.295 72.6945 594.748 81.7619C659.723 90.895 721.756 103.616 783.057 117.505C810.925 123.813 831.488 125.14 859.202 117.614C880.742 111.772 898.473 103.018 919.947 97.121C950.136 88.8325 974.03 90.1764 1004.94 96.7699C1043.57 104.998 1081.99 113.511 1120.95 121.377C1187.56 134.833 1265.97 150.73 1339.53 147.06C1432.92 142.397 1504.71 103.66 1599.34 100.33" stroke="url(#paint30_linear_1_11223)" stroke-miterlimit="10"/>
<path d="M0.477417 95.8256C70.4269 97.2793 135.691 118.447 206.595 110.148C271.315 102.573 321.612 78.5083 384.7 68.8814C450.597 58.8322 529.418 68.5194 594.038 77.0217C659.679 85.6612 721.99 98.0362 783.001 112.677C810.415 119.259 831.089 120.85 858.658 113.275C879.753 107.477 896.93 98.7164 917.993 92.8635C948.071 84.5038 972.298 86.0836 1002.84 92.9787C1041.39 101.679 1080.1 110.252 1119.49 117.987C1186.31 131.102 1265.63 146.286 1338.89 142.671C1432.5 138.058 1504.47 99.1114 1599.32 95.8256" stroke="url(#paint31_linear_1_11223)" stroke-miterlimit="10"/>
<path d="M0.510864 91.4378C70.8156 92.7433 135.624 114.142 206.962 105.766C271.46 98.1958 321.457 74.1533 384.345 64.5813C450.175 54.565 529.351 64.4497 593.993 72.771C659.868 81.2514 721.979 93.5332 783.068 108.24C810.382 114.822 831.344 116.193 858.724 108.667C879.676 102.908 896.741 94.2244 917.693 88.4482C947.671 80.1872 972.342 81.7232 1002.6 88.8158C1040.98 97.8118 1079.73 106.451 1119.29 114.109C1185.79 126.983 1266.14 141.997 1338.83 138.245C1432.31 133.428 1504.75 95.1404 1599.36 91.4542" stroke="url(#paint32_linear_1_11223)" stroke-miterlimit="10"/>
<path d="M0.532898 87.1205C70.9931 88.3602 135.613 109.901 207.117 101.426C271.515 93.7908 321.768 69.9512 384.7 60.4396C450.53 50.4891 529.529 60.8071 594.071 69.1833C659.735 77.7076 721.579 89.9674 783.09 103.977C841.315 117.235 870.172 96.8461 918.126 84.131C948.104 76.1827 972.931 77.6308 1002.91 84.7508C1041.13 93.8291 1079.81 102.447 1119.36 110.017C1185.47 122.666 1266.86 137.751 1339.03 133.681C1432.11 128.426 1505.44 91.6953 1599.41 87.2028" stroke="url(#paint33_linear_1_11223)" stroke-miterlimit="10"/>
<path d="M0.555176 82.8697C71.2264 84.0655 135.691 105.766 207.417 97.2195C271.815 89.5399 322.267 65.9527 385.233 56.5288C451.063 46.6551 529.828 57.3681 594.271 65.7717C659.679 74.3015 721.29 86.5065 783.157 99.8086C840.893 112.227 870.782 92.2003 918.77 80.0612C948.748 72.4584 973.797 73.8627 1003.51 80.9937C1041.55 90.1214 1080.12 98.6731 1119.66 106.111C1185.5 118.503 1267.71 133.429 1339.28 129.084C1431.89 123.467 1506.11 88.3331 1599.4 83.1275" stroke="url(#paint34_linear_1_11223)" stroke-miterlimit="10"/>
<path d="M0.577148 78.6953C71.4926 79.8582 135.857 101.734 207.85 93.1493C272.17 85.4807 322.922 62.1623 385.932 52.8371C451.762 43.128 530.272 54.1097 594.593 62.5188C659.69 71.0212 721.168 83.1329 783.256 95.7C840.582 107.291 871.493 87.7078 919.602 76.1336C949.658 68.9093 974.896 70.3136 1004.39 77.4391C1042.21 86.5833 1080.71 95.0362 1120.18 102.299C1185.85 114.394 1268.56 128.952 1339.64 124.383C1431.8 118.464 1506.88 84.9815 1599.46 79.1341" stroke="url(#paint35_linear_1_11223)" stroke-miterlimit="10"/>
<path d="M0.599487 74.592C71.8147 75.7439 136.057 97.7897 208.416 89.1996C272.681 81.5749 323.744 58.5198 386.809 49.3811C452.617 39.842 530.728 51.0706 595.026 59.4523C659.768 67.8998 721.057 79.8854 783.401 91.6954C840.293 102.474 872.292 83.407 920.624 72.4582C950.78 65.6234 976.217 67.077 1005.52 74.1806C1043.05 83.3712 1081.56 91.5491 1120.89 98.6784C1186.51 110.439 1269.45 124.46 1340.12 119.682C1431.68 113.522 1507.68 81.7285 1599.44 75.327" stroke="url(#paint36_linear_1_11223)" stroke-miterlimit="10"/>
<path d="M0.632996 70.566C72.1702 71.7179 136.391 93.9557 209.105 85.3766C273.314 77.8122 324.721 55.0643 387.864 46.1121C453.65 36.787 531.427 48.1911 595.603 56.5344C660.001 64.8941 721.124 76.7151 783.612 87.7572C840.082 97.7407 873.236 79.2384 921.857 68.9533C952.157 62.5409 977.783 64.0768 1006.92 71.1475C1044.22 80.2772 1082.6 88.3019 1121.83 95.179C1187.49 106.572 1270.42 119.83 1340.71 114.926C1431.68 108.58 1508.54 78.5253 1599.51 71.6247" stroke="url(#paint37_linear_1_11223)" stroke-miterlimit="10"/>
<path d="M0.65509 66.6275C72.5587 67.785 136.768 90.2147 209.893 81.7014C274.058 74.2303 325.831 51.8115 388.997 43.0733C454.749 33.9785 532.116 45.5197 596.236 53.7917C660.156 62.0198 721.257 73.6543 783.812 83.912C839.882 93.111 874.257 75.2396 923.211 65.6511C953.678 59.683 979.504 61.3341 1008.52 68.3938C1045.57 77.4363 1083.77 85.2804 1122.88 91.8768C1188.64 102.848 1271.32 115.223 1341.31 110.203C1431.64 103.731 1509.34 75.448 1599.49 68.125" stroke="url(#paint38_linear_1_11223)" stroke-miterlimit="10"/>
<path d="M0.677307 62.7658C72.9806 63.9506 137.245 86.5943 210.792 78.1249C274.913 70.7854 327.064 48.7232 390.296 40.2208C456.004 31.3893 532.948 43.0129 596.924 51.1916C660.401 59.31 721.435 70.6812 784.012 80.149C839.694 88.5691 875.357 71.3724 924.677 62.5189C955.332 57.0335 981.358 58.8108 1010.28 65.8102C1047.09 74.7454 1085.13 82.3801 1124.12 88.6568C1190.1 99.2052 1272.3 110.533 1342.04 105.426C1431.72 98.8432 1510.22 72.3981 1599.52 64.6966" stroke="url(#paint39_linear_1_11223)" stroke-miterlimit="10"/>
<path d="M0.699402 58.9913C73.4358 60.2091 137.689 83.0722 211.78 74.7179C275.856 67.4882 328.418 45.7989 391.717 37.5599C457.37 29.0191 533.837 40.6811 597.724 48.7556C660.756 56.7258 721.734 67.8118 784.256 76.4787C839.56 84.1583 876.589 67.6637 926.298 59.5728C957.164 54.5536 983.39 56.5229 1012.25 63.4125C1048.8 72.2123 1086.66 79.6137 1125.5 85.5516C1191.73 95.6173 1273.27 105.776 1342.81 100.609C1431.82 94.0265 1511.06 69.3971 1599.52 61.3774" stroke="url(#paint40_linear_1_11223)" stroke-miterlimit="10"/>
<path d="M0.721802 55.3105C73.9134 56.5721 138.234 79.6546 212.791 71.4156C276.9 64.3559 329.873 43.0396 393.249 35.0858C458.835 26.8577 534.769 38.5142 598.657 46.468C661.223 54.2682 722.156 65.0361 784.611 72.8966C839.538 79.8137 878.01 64.0871 928.13 56.797C959.218 52.277 985.633 54.4383 1014.47 61.295C1050.75 69.9403 1088.42 77.083 1127.1 82.6496C1193.58 92.1997 1274.3 101.108 1343.69 95.8804C1432 89.2595 1511.95 66.55 1599.57 58.2561" stroke="url(#paint41_linear_1_11223)" stroke-miterlimit="10"/>
<path d="M0.744141 51.7402C74.391 53.0402 138.789 76.3422 214.001 68.2402C278.011 61.3396 331.428 40.4403 394.871 32.7881C460.379 24.8837 535.791 36.5127 599.534 44.3075C661.645 51.9212 722.534 62.3325 784.856 69.3922C839.438 75.5797 879.432 60.6155 929.94 54.1647C961.25 50.1549 987.876 52.5191 1016.72 59.3265C1052.73 67.7988 1090.2 74.6628 1128.69 79.8363C1195.6 88.8324 1275.32 96.3474 1344.6 91.1308C1432.22 84.5483 1512.81 63.7477 1599.59 55.2179" stroke="url(#paint42_linear_1_11223)" stroke-miterlimit="10"/>
<path d="M0.766113 48.229C74.9459 49.6058 139.466 73.1327 215.211 65.1843C279.209 58.4757 333.093 37.9932 396.58 30.6593C462.033 23.1059 536.879 34.6691 600.533 42.3322C662.177 49.7539 723.022 59.7702 785.177 66.0291C839.438 71.5145 881.008 57.3567 931.894 51.7671C963.438 48.2838 990.263 50.9004 1019.15 57.6145C1054.89 65.8968 1092.15 72.4638 1130.43 77.2248C1197.76 85.6284 1276.37 91.7007 1345.55 86.4786C1432.49 79.9236 1513.65 61.1087 1599.61 52.3814" stroke="url(#paint43_linear_1_11223)" stroke-miterlimit="10"/>
<path d="M0.788086 44.834C75.5008 46.2821 140.132 70.0339 216.51 62.2611C280.453 55.7499 334.769 35.7008 398.368 28.7014C463.732 21.5046 538 32.9855 601.554 40.4786C662.754 47.6919 723.522 57.2858 785.477 62.7438C839.46 67.4996 882.64 54.1975 933.914 49.4417C965.68 46.496 992.694 49.3704 1021.68 56.0242C1057.14 64.1006 1094.19 70.3503 1132.24 74.6745C1199.97 82.4418 1277.38 87.0057 1346.53 81.8055C1432.79 75.3273 1514.46 58.4981 1599.63 49.5953" stroke="url(#paint44_linear_1_11223)" stroke-miterlimit="10"/>
<path d="M0.810486 41.543C76.045 43.0679 140.843 67.0445 217.809 59.4582C281.763 53.1555 336.535 33.5507 400.211 26.897C465.486 20.0786 539.166 31.4443 602.676 38.7619C663.443 45.7667 724.121 54.8999 785.877 59.5625C839.627 63.6162 884.45 51.1808 936.091 47.3026C968.09 44.8945 995.292 48.0431 1024.39 54.5982C1059.57 62.4657 1096.4 68.3928 1134.21 72.2721C1202.4 79.3647 1278.49 82.3707 1347.62 77.209C1433.11 70.813 1515.27 56.0134 1599.66 46.9625" stroke="url(#paint45_linear_1_11223)" stroke-miterlimit="10"/>
<path d="M0.832703 38.3558C76.6113 39.963 141.575 64.1371 219.175 56.7812C283.129 50.6979 338.356 31.5374 402.11 25.2457C467.296 18.8278 540.376 30.0509 603.808 37.1819C664.165 43.9673 724.732 52.6123 786.221 56.485C839.782 59.8585 886.238 48.3062 938.211 45.3057C970.41 43.4462 997.824 46.8801 1027.04 53.3528C1061.94 60.9965 1098.55 66.5843 1136.1 70.001C1204.72 76.3805 1279.46 77.8012 1348.59 72.6778C1433.46 66.3916 1515.95 53.6381 1599.6 44.4555" stroke="url(#paint46_linear_1_11223)" stroke-miterlimit="10"/>
<path d="M0.85498 35.2837C77.1887 36.9732 142.342 61.3942 220.563 54.2302C284.506 48.3663 340.221 29.6666 404.053 23.7644C469.128 17.7304 541.598 28.8274 605.019 35.7609C664.975 42.3434 725.409 50.4563 786.643 53.5446C840.104 56.2434 888.148 45.5907 940.521 43.4734C972.953 42.1624 1000.48 45.8979 1029.97 52.2829C1064.61 59.6989 1100.99 64.9399 1138.27 67.8834C1294.82 80.6588 1448.23 59.1067 1599.76 42.102" stroke="url(#paint47_linear_1_11223)" stroke-miterlimit="10"/>
<path d="M0.877075 32.3103C77.7771 34.093 143.119 58.7279 221.984 51.7889C285.927 46.1609 342.12 27.9274 406.029 22.3707C470.993 16.7208 542.852 27.6806 606.14 34.4112C665.752 40.7687 726.009 48.355 786.965 50.6424C840.415 52.6665 889.968 42.9629 942.73 41.7012C975.351 40.9333 1003.11 44.9925 1032.77 51.2842C1067.01 58.5962 1103.37 63.2588 1140.29 65.837C1292.86 76.4951 1451.98 56.7093 1599.72 39.8197" stroke="url(#paint48_linear_1_11223)" stroke-miterlimit="10"/>
<path d="M0.899353 29.4585C78.3656 31.3345 143.907 56.1833 223.416 49.4747C287.37 44.0606 344.029 26.3153 408.016 21.1316C472.87 15.8821 544.107 26.6938 607.328 33.1995C666.619 39.3157 726.664 46.3644 787.342 47.9058C840.893 49.2662 891.845 40.4786 945.006 40.1111C977.816 39.8862 1005.75 44.2635 1035.64 50.4785C1069.66 57.5491 1105.78 61.8113 1142.39 63.9287C1212.12 67.9604 1282.84 64.5266 1352 59.5952C1434.99 53.6765 1518.09 47.1818 1599.74 37.6536" stroke="url(#paint49_linear_1_11223)" stroke-miterlimit="10"/>
<path d="M0.92157 26.7208C78.2879 28.6571 143.741 53.5498 223.172 47.4172C286.871 42.4803 343.641 25.4262 407.128 20.2535C471.304 15.0259 541.109 25.3988 603.775 31.6631C664.354 37.6971 725.72 44.4386 787.731 45.2833C842.78 46.0348 896.419 37.73 951.346 38.7009C984.5 39.2878 1012.14 44.6416 1042.52 50.5877C1074.09 56.7643 1107.42 60.3023 1141.13 61.9754C1212.88 65.5354 1284.04 60.2859 1354.93 55.3326C1436.76 49.6168 1519.33 45.2175 1599.8 35.662" stroke="url(#paint50_linear_1_11223)" stroke-miterlimit="10"/>
<path d="M0.932678 24.104C78.832 26.1335 144.551 51.2347 224.571 45.3379C288.281 40.6424 345.506 24.0381 409.093 19.2439C473.136 14.4387 542.386 24.6635 604.963 30.7248C665.253 36.5722 726.387 42.7927 788.075 42.7927C843.446 42.7927 898.273 35.5904 953.656 37.428C986.854 38.525 1014.72 44.186 1045.35 50.006C1076.7 55.9631 1109.81 59.1282 1143.23 60.3788C1215.21 63.0722 1285.14 56.1441 1356.02 51.3279C1437.32 45.8042 1519.87 43.4509 1599.78 33.7747" stroke="url(#paint51_linear_1_11223)" stroke-miterlimit="10"/>
<path d="M0.955078 21.6146C79.4428 23.7374 145.295 49.0416 225.993 43.3751C289.724 38.8991 347.394 22.761 411.07 18.3398C474.979 13.8912 543.685 24.0446 606.229 29.9085C666.186 35.542 727.086 41.2029 788.453 40.4021C844.224 39.6725 900.128 33.5508 955.976 36.2441C989.219 37.8514 1017.31 43.814 1048.13 49.5078C1079.22 55.251 1112.17 58.0431 1145.28 58.8714C1217.45 60.687 1286.23 52.1134 1357.09 47.4289C1437.87 42.0861 1520.3 41.7899 1599.74 31.993" stroke="url(#paint52_linear_1_11223)" stroke-miterlimit="10"/>
<path d="M0.977112 19.2497C80.0089 21.4439 146.139 46.9619 227.402 41.5314C291.145 37.2692 349.259 21.57 413.035 17.5438C476.811 13.5175 544.962 23.5338 607.339 29.1947C667.152 34.6253 727.763 39.7541 788.797 38.1469C845.056 36.6658 901.915 31.6412 958.23 35.1793C991.54 37.2692 1019.83 43.5555 1050.94 49.1177C1082.05 54.6799 1114.58 57.0715 1147.38 57.4884C1219.55 58.4154 1287.41 48.2345 1358.2 43.6816C1438.52 38.5144 1520.88 40.2697 1599.79 30.3302" stroke="url(#paint53_linear_1_11223)" stroke-miterlimit="10"/>
<path d="M0.988098 17.0124C80.564 19.3162 146.927 44.9879 228.768 39.8096C292.544 35.7559 351.08 20.534 414.945 16.8478C478.543 13.1781 546.272 23.1286 608.538 28.5975C668.173 33.8306 728.452 38.4218 789.186 36.0247C846 33.7812 903.703 29.8482 960.517 34.2145C993.727 36.7707 1022.35 43.3861 1053.68 48.8221C1084.44 54.1539 1116.97 56.2055 1149.41 56.2219C1221.58 56.2658 1288.58 44.5271 1359.26 40.0949C1439.2 35.0812 1521.37 38.8826 1599.79 28.784" stroke="url(#paint54_linear_1_11223)" stroke-miterlimit="10"/>
<path d="M0.999023 14.9111C81.1078 17.2918 147.671 43.1774 230.1 38.1966C293.91 34.3568 352.867 19.5463 416.81 16.2551C480.342 12.9638 547.393 22.8375 609.67 28.1145C669.183 33.1391 729.162 37.2147 789.541 34.0387C846.966 31.0217 905.412 28.1803 962.749 33.3585C995.947 36.348 1024.82 43.298 1056.38 48.6079C1086.99 53.7532 1119.25 55.4372 1151.39 55.0642C1223.45 54.2359 1289.75 40.9942 1360.33 36.6662C1439.82 31.7952 1521.77 37.6426 1599.82 27.341" stroke="url(#paint55_linear_1_11223)" stroke-miterlimit="10"/>
<path d="M1.02148 12.9414C81.6299 15.4043 148.426 41.4654 231.4 36.7041C295.242 33.0344 354.644 18.7011 418.62 15.7225C482.019 12.7714 548.526 22.6286 610.77 27.7081C670.172 32.5407 729.851 36.1062 789.885 32.1677C847.954 28.3608 907.123 26.5945 964.859 32.5681C998.024 35.9965 1027.14 43.2756 1058.98 48.4758C1089.4 53.4126 1121.49 54.773 1153.36 54.0215C1225.23 52.3375 1290.96 37.6586 1361.42 33.4239C1440.53 28.668 1522.23 36.545 1599.91 26.0405" stroke="url(#paint56_linear_1_11223)" stroke-miterlimit="10"/>
<path d="M1.03259 11.1094C82.0852 13.6491 149.126 39.8967 232.632 35.3274C296.508 31.8277 356.243 17.9277 420.363 15.2783C483.651 12.6672 549.67 22.508 611.814 27.412C671.137 32.102 730.517 35.1299 790.196 30.4454C848.942 25.8376 908.644 25.1245 966.879 31.8716C999.978 35.7114 1029.37 43.3196 1061.42 48.3991C1091.69 53.1933 1123.6 54.1861 1155.13 53.0781C1226.75 50.5603 1292.02 34.5265 1362.35 30.3466C1441.18 25.6786 1522.56 35.5742 1599.89 24.8174" stroke="url(#paint57_linear_1_11223)" stroke-miterlimit="10"/>
<path d="M1.04364 9.42578C82.607 12.0259 149.825 38.449 233.798 34.0607C297.729 30.7256 357.83 17.237 422.017 14.9112C485.205 12.6238 550.713 22.4646 612.802 27.2149C672.07 31.7513 731.161 34.2746 790.507 28.8605C849.853 23.4464 910.143 23.7646 968.834 31.2576C1001.85 35.4759 1031.53 43.3255 1063.77 48.383C1093.74 53.095 1125.7 53.6874 1156.84 52.2228C1228.17 48.9316 1293.08 31.6032 1363.26 27.4782C1441.75 22.865 1522.89 34.7628 1599.89 23.7152" stroke="url(#paint58_linear_1_11223)" stroke-miterlimit="10"/>
<path d="M1.11041 7.85645C83.1179 10.5114 150.48 37.11 234.953 32.8918C298.862 29.7157 359.318 16.6331 423.583 14.609C486.626 12.6232 551.713 22.497 613.735 27.1102C672.97 31.4985 731.783 33.5445 790.785 27.4173C850.897 21.1805 911.542 22.4805 970.655 30.7086C1003.61 35.2834 1033.54 43.4292 1065.96 48.4154C1095.82 53.0067 1127.61 53.27 1158.43 51.5092C1192.06 49.5838 1224.85 45.1736 1257.14 40.2806C1291.98 35.0091 1327.83 26.9675 1364.13 24.8392C1442.35 20.2479 1523.21 34.1205 1599.9 22.7438" stroke="url(#paint59_linear_1_11223)" stroke-miterlimit="10"/>
<path d="M1.11041 6.48535C83.5176 9.18416 151.002 35.9529 235.963 31.8772C299.928 28.8054 360.706 16.0848 425.049 14.3624C487.992 12.6564 552.612 22.5905 614.578 27.0885C673.813 31.3781 732.393 32.9414 791.051 26.1231C851.818 19.0579 912.863 21.3014 972.409 30.2426C1005.22 35.1794 1035.41 43.5721 1068 48.487C1097.73 52.9686 1129.37 52.9356 1159.9 50.8731C1193.46 48.6132 1226.06 43.8189 1258.16 38.6133C1292.74 33.0072 1328.65 24.5487 1364.94 22.404C1442.91 17.8017 1523.52 33.6216 1599.91 21.8554" stroke="url(#paint60_linear_1_11223)" stroke-miterlimit="10"/>
<path d="M1.11041 5.24023C83.8951 7.98293 151.557 34.9107 236.885 30.9557C300.894 27.9827 361.961 15.646 426.359 14.1705C489.213 12.7278 553.4 22.777 615.322 27.1599C674.568 31.3452 732.937 32.4697 791.251 24.9657C852.718 17.0832 914.04 20.2099 974.008 29.8367C1006.7 35.0808 1037.11 43.7312 1069.86 48.5913C1099.47 52.9796 1130.93 52.6724 1161.23 50.3411C1194.71 47.763 1227.15 42.6067 1259.08 37.1158C1293.43 31.2081 1329.38 22.3766 1365.67 20.1989C1443.39 15.5363 1523.81 33.2816 1599.94 21.093" stroke="url(#paint61_linear_1_11223)" stroke-miterlimit="10"/>
<path d="M1.11041 4.14844C84.2393 6.89113 152.013 34.0054 237.706 30.1437C301.793 27.2529 363.171 15.2564 427.636 14.0221C490.424 12.8154 554.211 23.0127 616.066 27.3078C675.335 31.4163 733.537 32.1239 791.495 23.9781C853.595 15.2509 915.072 19.2004 975.462 29.4635C1008.04 35.0092 1038.65 43.8846 1071.54 48.7008C1101.05 53.0178 1132.39 52.4692 1162.4 49.8911C1195.85 47.0168 1228.1 41.5314 1259.89 35.7772C1294.05 29.5842 1330.03 20.451 1366.36 18.224C1443.92 13.4626 1524.14 33.0894 1599.94 20.4181" stroke="url(#paint62_linear_1_11223)" stroke-miterlimit="10"/>
<path d="M1.11041 3.21582C84.5613 5.95852 152.401 33.2428 238.428 29.4415C302.526 26.611 364.182 14.9326 428.702 13.8904C491.423 12.8975 554.788 23.2759 616.644 27.5106C675.945 31.5698 734.037 31.8989 791.662 23.1223C854.405 13.5613 915.916 18.2568 976.75 29.1562C1009.18 34.9707 1039.97 44.0491 1072.98 48.8323C1102.4 53.1 1133.59 52.343 1163.39 49.5454C1196.79 46.4023 1228.9 40.6207 1260.56 34.6252C1294.57 28.1798 1330.51 18.8108 1366.94 16.5234C1444.33 11.614 1524.45 33.0893 1599.96 19.8585" stroke="url(#paint63_linear_1_11223)" stroke-miterlimit="10"/>
<path d="M1.11041 2.4375C84.1504 5.1802 151.768 32.4645 237.295 28.9265C304.88 26.1344 370.21 13.5235 438.406 13.7813C496.708 14.0007 555.21 23.463 612.802 27.5332C673.991 31.8557 732.56 31.735 791.817 22.4811C857.525 12.2454 919.092 17.6265 982.424 29.7986C1010.81 35.2511 1037.86 42.6893 1066.46 47.7962C1096.73 53.1993 1129.96 52.6727 1161.11 49.6722C1196.45 46.2713 1230.28 39.7985 1263.61 33.216C1297.21 26.5568 1332.93 17.1822 1369.16 14.9881C1445.77 10.3749 1525.44 33.1502 1599.94 19.4148" stroke="url(#paint64_linear_1_11223)" stroke-miterlimit="10"/>
<path d="M1.11041 1.82324C84.3836 4.52754 152.001 31.9929 237.762 28.4493C305.368 25.6518 370.999 13.3371 439.172 13.7485C497.43 14.105 555.632 23.8306 613.191 27.9063C674.424 32.2397 732.982 31.8119 791.95 21.9546C858.325 10.8522 919.569 16.8642 983.423 29.6342C1011.68 35.2841 1038.81 42.7881 1067.48 47.9005C1097.69 53.3091 1130.77 52.6728 1161.74 49.5023C1197.06 45.8874 1230.76 39.1349 1263.99 32.3769C1297.54 25.553 1333.25 16.0743 1369.57 13.7704C1446.03 8.95425 1525.8 33.4356 1599.96 19.0364" stroke="url(#paint65_linear_1_11223)" stroke-miterlimit="10"/>
<path d="M1.11041 1.38379C84.5502 4.0442 152.112 31.6741 238.117 28.0757C305.735 25.2452 371.51 13.1938 439.771 13.7369C498.007 14.1977 555.932 24.2359 613.468 28.3445C674.735 32.7328 733.382 32.0362 791.973 21.5865C858.991 9.6393 919.747 16.1559 984.145 29.4635C1012.34 35.2835 1039.53 42.8643 1068.23 48.037C1098.41 53.4731 1131.21 52.7874 1162.15 49.4687C1233.64 41.7892 1297.7 17.7467 1369.88 12.8976C1446.21 7.76878 1526.19 33.9012 1599.96 18.778" stroke="url(#paint66_linear_1_11223)" stroke-miterlimit="10"/>
<path d="M1.11041 1.10449C84.6834 3.71005 152.223 31.5045 238.328 27.8183C305.957 24.9166 371.954 13.101 440.182 13.7319C498.429 14.2804 556.099 24.6697 613.613 28.8496C674.902 33.3037 733.748 32.4041 792.006 21.3895C859.613 8.60302 919.691 15.4982 984.7 29.3433C1012.66 35.284 1039.92 43.1555 1068.68 48.1253C1099.24 53.3967 1131.05 52.9689 1162.33 49.5021C1233.94 41.5592 1297.64 17.4948 1370.08 12.2947C1446.31 6.8093 1526.63 34.538 1599.91 18.6139" stroke="url(#paint67_linear_1_11223)" stroke-miterlimit="10"/>
<path d="M1.11041 1C84.7722 3.52877 152.19 31.4878 238.383 27.6645C306.012 24.664 372.098 13.0459 440.46 13.7261C498.718 14.3076 556.165 25.1357 613.668 29.4143C674.957 33.9727 734.114 32.925 792.028 21.3563C860.157 7.73606 919.392 14.878 985.022 29.2498C1044.98 42.3708 1094.38 57.3075 1162.27 49.617C1234.08 41.4822 1297.47 17.6207 1370.17 12.0037C1446.31 6.11787 1527.05 35.344 1600 18.5862" stroke="url(#paint68_linear_1_11223)" stroke-miterlimit="10"/>
</g>
<defs>
<linearGradient id="paint0_linear_1_11223" x1="84.415" y1="293" x2="84.5765" y2="276.278" gradientUnits="userSpaceOnUse">
<stop stop-color="#987CE8"/>
<stop offset="1" stop-color="#2FDCDC"/>
</linearGradient>
<linearGradient id="paint1_linear_1_11223" x1="84.4127" y1="283.839" x2="86.3236" y2="226.347" gradientUnits="userSpaceOnUse">
<stop stop-color="#987CE8"/>
<stop offset="1" stop-color="#2FDCDC"/>
</linearGradient>
<linearGradient id="paint2_linear_1_11223" x1="84.415" y1="276.431" x2="90.9149" y2="170.539" gradientUnits="userSpaceOnUse">
<stop stop-color="#987CE8"/>
<stop offset="1" stop-color="#2FDCDC"/>
</linearGradient>
<linearGradient id="paint3_linear_1_11223" x1="84.415" y1="270.598" x2="102.552" y2="94.3089" gradientUnits="userSpaceOnUse">
<stop stop-color="#987CE8"/>
<stop offset="1" stop-color="#2FDCDC"/>
</linearGradient>
<linearGradient id="paint4_linear_1_11223" x1="84.415" y1="265.944" x2="133.789" y2="-22.2564" gradientUnits="userSpaceOnUse">
<stop stop-color="#987CE8"/>
<stop offset="1" stop-color="#2FDCDC"/>
</linearGradient>
<linearGradient id="paint5_linear_1_11223" x1="84.415" y1="262.21" x2="183.569" y2="-140.116" gradientUnits="userSpaceOnUse">
<stop stop-color="#987CE8"/>
<stop offset="1" stop-color="#2FDCDC"/>
</linearGradient>
<linearGradient id="paint6_linear_1_11223" x1="17.415" y1="291.974" x2="194.726" y2="-233" gradientUnits="userSpaceOnUse">
<stop stop-color="#987CE8"/>
<stop offset="1" stop-color="#2FDCDC"/>
</linearGradient>
<linearGradient id="paint7_linear_1_11223" x1="84.4138" y1="256.586" x2="358.554" y2="-375.514" gradientUnits="userSpaceOnUse">
<stop stop-color="#987CE8"/>
<stop offset="1" stop-color="#2FDCDC"/>
</linearGradient>
<linearGradient id="paint8_linear_1_11223" x1="84.4156" y1="254.204" x2="464.045" y2="-462.221" gradientUnits="userSpaceOnUse">
<stop stop-color="#987CE8"/>
<stop offset="1" stop-color="#2FDCDC"/>
</linearGradient>
<linearGradient id="paint9_linear_1_11223" x1="84.4681" y1="251.729" x2="566.821" y2="-524.529" gradientUnits="userSpaceOnUse">
<stop stop-color="#987CE8"/>
<stop offset="1" stop-color="#2FDCDC"/>
</linearGradient>
<linearGradient id="paint10_linear_1_11223" x1="84.4814" y1="248.931" x2="667.165" y2="-569.283" gradientUnits="userSpaceOnUse">
<stop stop-color="#987CE8"/>
<stop offset="1" stop-color="#2FDCDC"/>
</linearGradient>
<linearGradient id="paint11_linear_1_11223" x1="84.4926" y1="245.608" x2="741.555" y2="-594.665" gradientUnits="userSpaceOnUse">
<stop stop-color="#987CE8"/>
<stop offset="1" stop-color="#2FDCDC"/>
</linearGradient>
<linearGradient id="paint12_linear_1_11223" x1="84.5038" y1="241.515" x2="794.692" y2="-610.2" gradientUnits="userSpaceOnUse">
<stop stop-color="#987CE8"/>
<stop offset="1" stop-color="#2FDCDC"/>
</linearGradient>
<linearGradient id="paint13_linear_1_11223" x1="84.5283" y1="236.293" x2="822.501" y2="-620.053" gradientUnits="userSpaceOnUse">
<stop stop-color="#987CE8"/>
<stop offset="1" stop-color="#2FDCDC"/>
</linearGradient>
<linearGradient id="paint14_linear_1_11223" x1="84.5371" y1="229.974" x2="834.992" y2="-628.123" gradientUnits="userSpaceOnUse">
<stop stop-color="#987CE8"/>
<stop offset="1" stop-color="#2FDCDC"/>
</linearGradient>
<linearGradient id="paint15_linear_1_11223" x1="84.5464" y1="223.646" x2="847.511" y2="-636.024" gradientUnits="userSpaceOnUse">
<stop stop-color="#987CE8"/>
<stop offset="1" stop-color="#2FDCDC"/>
</linearGradient>
<linearGradient id="paint16_linear_1_11223" x1="84.5691" y1="217.551" x2="854.759" y2="-642.957" gradientUnits="userSpaceOnUse">
<stop stop-color="#987CE8"/>
<stop offset="1" stop-color="#2FDCDC"/>
</linearGradient>
<linearGradient id="paint17_linear_1_11223" x1="84.5944" y1="211.614" x2="857.197" y2="-649.186" gradientUnits="userSpaceOnUse">
<stop stop-color="#987CE8"/>
<stop offset="1" stop-color="#2FDCDC"/>
</linearGradient>
<linearGradient id="paint18_linear_1_11223" x1="84.6037" y1="205.869" x2="855.436" y2="-654.721" gradientUnits="userSpaceOnUse">
<stop stop-color="#987CE8"/>
<stop offset="1" stop-color="#2FDCDC"/>
</linearGradient>
<linearGradient id="paint19_linear_1_11223" x1="84.626" y1="200.298" x2="849.875" y2="-659.658" gradientUnits="userSpaceOnUse">
<stop stop-color="#987CE8"/>
<stop offset="1" stop-color="#2FDCDC"/>
</linearGradient>
<linearGradient id="paint20_linear_1_11223" x1="84.6487" y1="194.939" x2="836.347" y2="-663.329" gradientUnits="userSpaceOnUse">
<stop stop-color="#987CE8"/>
<stop offset="1" stop-color="#2FDCDC"/>
</linearGradient>
<linearGradient id="paint21_linear_1_11223" x1="84.6715" y1="189.712" x2="827.353" y2="-667.314" gradientUnits="userSpaceOnUse">
<stop stop-color="#987CE8"/>
<stop offset="1" stop-color="#2FDCDC"/>
</linearGradient>
<linearGradient id="paint22_linear_1_11223" x1="84.69" y1="184.608" x2="816.283" y2="-670.721" gradientUnits="userSpaceOnUse">
<stop stop-color="#987CE8"/>
<stop offset="1" stop-color="#2FDCDC"/>
</linearGradient>
<linearGradient id="paint23_linear_1_11223" x1="84.7147" y1="179.679" x2="804.374" y2="-673.712" gradientUnits="userSpaceOnUse">
<stop stop-color="#987CE8"/>
<stop offset="1" stop-color="#2FDCDC"/>
</linearGradient>
<linearGradient id="paint24_linear_1_11223" x1="84.7393" y1="174.855" x2="791.62" y2="-676.268" gradientUnits="userSpaceOnUse">
<stop stop-color="#987CE8"/>
<stop offset="1" stop-color="#2FDCDC"/>
</linearGradient>
<linearGradient id="paint25_linear_1_11223" x1="84.758" y1="170.12" x2="778.559" y2="-678.427" gradientUnits="userSpaceOnUse">
<stop stop-color="#987CE8"/>
<stop offset="1" stop-color="#2FDCDC"/>
</linearGradient>
<linearGradient id="paint26_linear_1_11223" x1="84.7812" y1="165.478" x2="761.206" y2="-679.37" gradientUnits="userSpaceOnUse">
<stop stop-color="#987CE8"/>
<stop offset="1" stop-color="#2FDCDC"/>
</linearGradient>
<linearGradient id="paint27_linear_1_11223" x1="84.8012" y1="160.934" x2="748.789" y2="-681.011" gradientUnits="userSpaceOnUse">
<stop stop-color="#987CE8"/>
<stop offset="1" stop-color="#2FDCDC"/>
</linearGradient>
<linearGradient id="paint28_linear_1_11223" x1="84.8241" y1="156.441" x2="737.681" y2="-682.763" gradientUnits="userSpaceOnUse">
<stop stop-color="#987CE8"/>
<stop offset="1" stop-color="#2FDCDC"/>
</linearGradient>
<linearGradient id="paint29_linear_1_11223" x1="84.8456" y1="152.047" x2="728.99" y2="-684.893" gradientUnits="userSpaceOnUse">
<stop stop-color="#987CE8"/>
<stop offset="1" stop-color="#2FDCDC"/>
</linearGradient>
<linearGradient id="paint30_linear_1_11223" x1="84.8725" y1="147.598" x2="721.519" y2="-687.357" gradientUnits="userSpaceOnUse">
<stop stop-color="#987CE8"/>
<stop offset="1" stop-color="#2FDCDC"/>
</linearGradient>
<linearGradient id="paint31_linear_1_11223" x1="84.8924" y1="143.215" x2="718.038" y2="-690.753" gradientUnits="userSpaceOnUse">
<stop stop-color="#987CE8"/>
<stop offset="1" stop-color="#2FDCDC"/>
</linearGradient>
<linearGradient id="paint32_linear_1_11223" x1="84.9259" y1="138.832" x2="716.619" y2="-694.729" gradientUnits="userSpaceOnUse">
<stop stop-color="#987CE8"/>
<stop offset="1" stop-color="#2FDCDC"/>
</linearGradient>
<linearGradient id="paint33_linear_1_11223" x1="84.9497" y1="134.36" x2="711.861" y2="-697.857" gradientUnits="userSpaceOnUse">
<stop stop-color="#987CE8"/>
<stop offset="1" stop-color="#2FDCDC"/>
</linearGradient>
<linearGradient id="paint34_linear_1_11223" x1="84.9702" y1="129.856" x2="704.455" y2="-700.18" gradientUnits="userSpaceOnUse">
<stop stop-color="#987CE8"/>
<stop offset="1" stop-color="#2FDCDC"/>
</linearGradient>
<linearGradient id="paint35_linear_1_11223" x1="84.9939" y1="125.245" x2="693.38" y2="-701.429" gradientUnits="userSpaceOnUse">
<stop stop-color="#987CE8"/>
<stop offset="1" stop-color="#2FDCDC"/>
</linearGradient>
<linearGradient id="paint36_linear_1_11223" x1="85.0145" y1="120.643" x2="679.937" y2="-701.703" gradientUnits="userSpaceOnUse">
<stop stop-color="#987CE8"/>
<stop offset="1" stop-color="#2FDCDC"/>
</linearGradient>
<linearGradient id="paint37_linear_1_11223" x1="85.0498" y1="115.977" x2="663.665" y2="-700.83" gradientUnits="userSpaceOnUse">
<stop stop-color="#987CE8"/>
<stop offset="1" stop-color="#2FDCDC"/>
</linearGradient>
<linearGradient id="paint38_linear_1_11223" x1="85.0695" y1="111.356" x2="645.317" y2="-698.742" gradientUnits="userSpaceOnUse">
<stop stop-color="#987CE8"/>
<stop offset="1" stop-color="#2FDCDC"/>
</linearGradient>
<linearGradient id="paint39_linear_1_11223" x1="85.0923" y1="106.692" x2="624.315" y2="-695.165" gradientUnits="userSpaceOnUse">
<stop stop-color="#987CE8"/>
<stop offset="1" stop-color="#2FDCDC"/>
</linearGradient>
<linearGradient id="paint40_linear_1_11223" x1="85.1132" y1="102.003" x2="600.781" y2="-689.844" gradientUnits="userSpaceOnUse">
<stop stop-color="#987CE8"/>
<stop offset="1" stop-color="#2FDCDC"/>
</linearGradient>
<linearGradient id="paint41_linear_1_11223" x1="85.1368" y1="97.4313" x2="576.323" y2="-683.139" gradientUnits="userSpaceOnUse">
<stop stop-color="#987CE8"/>
<stop offset="1" stop-color="#2FDCDC"/>
</linearGradient>
<linearGradient id="paint42_linear_1_11223" x1="85.1591" y1="92.8486" x2="549.723" y2="-674.376" gradientUnits="userSpaceOnUse">
<stop stop-color="#987CE8"/>
<stop offset="1" stop-color="#2FDCDC"/>
</linearGradient>
<linearGradient id="paint43_linear_1_11223" x1="85.1811" y1="88.4208" x2="522.82" y2="-664.11" gradientUnits="userSpaceOnUse">
<stop stop-color="#987CE8"/>
<stop offset="1" stop-color="#2FDCDC"/>
</linearGradient>
<linearGradient id="paint44_linear_1_11223" x1="85.2031" y1="84.0286" x2="494.469" y2="-651.634" gradientUnits="userSpaceOnUse">
<stop stop-color="#987CE8"/>
<stop offset="1" stop-color="#2FDCDC"/>
</linearGradient>
<linearGradient id="paint45_linear_1_11223" x1="85.2255" y1="79.8041" x2="466.303" y2="-637.598" gradientUnits="userSpaceOnUse">
<stop stop-color="#987CE8"/>
<stop offset="1" stop-color="#2FDCDC"/>
</linearGradient>
<linearGradient id="paint46_linear_1_11223" x1="85.2436" y1="75.7902" x2="438.875" y2="-622.261" gradientUnits="userSpaceOnUse">
<stop stop-color="#987CE8"/>
<stop offset="1" stop-color="#2FDCDC"/>
</linearGradient>
<linearGradient id="paint47_linear_1_11223" x1="85.2729" y1="71.752" x2="409.728" y2="-603.959" gradientUnits="userSpaceOnUse">
<stop stop-color="#987CE8"/>
<stop offset="1" stop-color="#2FDCDC"/>
</linearGradient>
<linearGradient id="paint48_linear_1_11223" x1="85.2921" y1="68.8477" x2="392.011" y2="-592.248" gradientUnits="userSpaceOnUse">
<stop stop-color="#987CE8"/>
<stop offset="1" stop-color="#2FDCDC"/>
</linearGradient>
<linearGradient id="paint49_linear_1_11223" x1="85.3144" y1="65.705" x2="370.374" y2="-576.447" gradientUnits="userSpaceOnUse">
<stop stop-color="#987CE8"/>
<stop offset="1" stop-color="#2FDCDC"/>
</linearGradient>
<linearGradient id="paint50_linear_1_11223" x1="85.3383" y1="63.1458" x2="353.418" y2="-563.239" gradientUnits="userSpaceOnUse">
<stop stop-color="#987CE8"/>
<stop offset="1" stop-color="#2FDCDC"/>
</linearGradient>
<linearGradient id="paint51_linear_1_11223" x1="85.3477" y1="60.9827" x2="339.881" y2="-552.182" gradientUnits="userSpaceOnUse">
<stop stop-color="#987CE8"/>
<stop offset="1" stop-color="#2FDCDC"/>
</linearGradient>
<linearGradient id="paint52_linear_1_11223" x1="85.3671" y1="59.1211" x2="328.777" y2="-542.737" gradientUnits="userSpaceOnUse">
<stop stop-color="#987CE8"/>
<stop offset="1" stop-color="#2FDCDC"/>
</linearGradient>
<linearGradient id="paint53_linear_1_11223" x1="85.3904" y1="57.5489" x2="319.43" y2="-534.472" gradientUnits="userSpaceOnUse">
<stop stop-color="#987CE8"/>
<stop offset="1" stop-color="#2FDCDC"/>
</linearGradient>
<linearGradient id="paint54_linear_1_11223" x1="85.4008" y1="56.2232" x2="311.899" y2="-527.643" gradientUnits="userSpaceOnUse">
<stop stop-color="#987CE8"/>
<stop offset="1" stop-color="#2FDCDC"/>
</linearGradient>
<linearGradient id="paint55_linear_1_11223" x1="85.4129" y1="55.1151" x2="312.256" y2="-529.133" gradientUnits="userSpaceOnUse">
<stop stop-color="#987CE8"/>
<stop offset="1" stop-color="#2FDCDC"/>
</linearGradient>
<linearGradient id="paint56_linear_1_11223" x1="85.4388" y1="54.2157" x2="322.836" y2="-541.384" gradientUnits="userSpaceOnUse">
<stop stop-color="#987CE8"/>
<stop offset="1" stop-color="#2FDCDC"/>
</linearGradient>
<linearGradient id="paint57_linear_1_11223" x1="85.4482" y1="53.4906" x2="333.902" y2="-553.555" gradientUnits="userSpaceOnUse">
<stop stop-color="#987CE8"/>
<stop offset="1" stop-color="#2FDCDC"/>
</linearGradient>
<linearGradient id="paint58_linear_1_11223" x1="85.4586" y1="52.9317" x2="345.27" y2="-565.45" gradientUnits="userSpaceOnUse">
<stop stop-color="#987CE8"/>
<stop offset="1" stop-color="#2FDCDC"/>
</linearGradient>
<linearGradient id="paint59_linear_1_11223" x1="85.5225" y1="52.5177" x2="357.13" y2="-577.195" gradientUnits="userSpaceOnUse">
<stop stop-color="#987CE8"/>
<stop offset="1" stop-color="#2FDCDC"/>
</linearGradient>
<linearGradient id="paint60_linear_1_11223" x1="85.5231" y1="52.2166" x2="368.151" y2="-587.717" gradientUnits="userSpaceOnUse">
<stop stop-color="#987CE8"/>
<stop offset="1" stop-color="#2FDCDC"/>
</linearGradient>
<linearGradient id="paint61_linear_1_11223" x1="85.5248" y1="52.0169" x2="379.002" y2="-597.646" gradientUnits="userSpaceOnUse">
<stop stop-color="#987CE8"/>
<stop offset="1" stop-color="#2FDCDC"/>
</linearGradient>
<linearGradient id="paint62_linear_1_11223" x1="85.5248" y1="51.8886" x2="389.076" y2="-606.512" gradientUnits="userSpaceOnUse">
<stop stop-color="#987CE8"/>
<stop offset="1" stop-color="#2FDCDC"/>
</linearGradient>
<linearGradient id="paint63_linear_1_11223" x1="85.5254" y1="51.8397" x2="398.368" y2="-614.387" gradientUnits="userSpaceOnUse">
<stop stop-color="#987CE8"/>
<stop offset="1" stop-color="#2FDCDC"/>
</linearGradient>
<linearGradient id="paint64_linear_1_11223" x1="85.5248" y1="51.9075" x2="407.31" y2="-621.639" gradientUnits="userSpaceOnUse">
<stop stop-color="#987CE8"/>
<stop offset="1" stop-color="#2FDCDC"/>
</linearGradient>
<linearGradient id="paint65_linear_1_11223" x1="85.5254" y1="51.9303" x2="414.068" y2="-627.021" gradientUnits="userSpaceOnUse">
<stop stop-color="#987CE8"/>
<stop offset="1" stop-color="#2FDCDC"/>
</linearGradient>
<linearGradient id="paint66_linear_1_11223" x1="85.5254" y1="52.0433" x2="419.946" y2="-631.518" gradientUnits="userSpaceOnUse">
<stop stop-color="#987CE8"/>
<stop offset="1" stop-color="#2FDCDC"/>
</linearGradient>
<linearGradient id="paint67_linear_1_11223" x1="85.5231" y1="52.1017" x2="423.549" y2="-634.236" gradientUnits="userSpaceOnUse">
<stop stop-color="#987CE8"/>
<stop offset="1" stop-color="#2FDCDC"/>
</linearGradient>
<linearGradient id="paint68_linear_1_11223" x1="85.5278" y1="51.7192" x2="420.578" y2="-632.343" gradientUnits="userSpaceOnUse">
<stop stop-color="#987CE8"/>
<stop offset="1" stop-color="#2FDCDC"/>
</linearGradient>
</defs>
</svg>
