<?xml version="1.0" encoding="UTF-8"?>
<svg fill="none" viewBox="0 0 91 28" xmlns="http://www.w3.org/2000/svg">
<g clip-path="url(#a)">
<path d="m26.3 19.844c-0.1412-0.3412-0.2736-0.7-0.4147-1.0062l-0.653-1.4613-0.0265-0.0262c-1.9411-4.2-4.0147-8.47-6.2117-12.67l-0.0883-0.175c-0.2205-0.41125-0.4411-0.86625-0.6705-1.2862-0.2824-0.49875-0.5559-1.0325-1.0059-1.54-0.4387-0.53101-0.9907-0.95883-1.6163-1.2526s-1.3092-0.44615-2.0014-0.44615-1.3757 0.15238-2.0013 0.44615-1.1777 0.72159-1.6163 1.2526c-0.4147 0.5075-0.72353 1.0412-1.0059 1.54-0.22059 0.455-0.44117 0.90125-0.67059 1.3125l-0.08823 0.175c-2.1618 4.2-4.2706 8.47-6.2118 12.67l-0.05294 0.0525c-0.19411 0.455-0.42353 0.9275-0.64411 1.435-0.14118 0.3063-0.28236 0.6388-0.42353 1.0063-0.38115 0.9623-0.50286 2.0065-0.35314 3.0297 0.14972 1.0231 0.5657 1.99 1.2069 2.8051 0.64125 0.8152 1.4856 1.4507 2.4499 1.8437 0.9643 0.393 2.0152 0.5301 3.0492 0.3977 0.99129-0.1294 1.9458-0.4568 2.8058-0.9625 1.1471-0.6387 2.25-1.5662 3.4853-2.905 1.2353 1.3388 2.3647 2.2663 3.4853 2.9138 1.0777 0.6272 2.298 0.9734 3.5471 1.0062 1.4465 6e-3 2.8463-0.5072 3.941-1.4448 1.0947-0.9377 1.8104-2.2364 2.0149-3.6564 0.2363-1.0205 0.1563-2.0879-0.2294-3.0625v0.0087zm-12.671 1.4525c-1.5177-1.925-2.5059-3.6925-2.8412-5.2062-0.1389-0.5609-0.1689-1.143-0.0882-1.715 0.0617-0.4463 0.2294-0.84 0.4588-1.1725 0.5294-0.7613 1.4559-1.2338 2.4706-1.2338 0.4819-0.0146 0.9599 0.0897 1.3911 0.3035s0.8021 0.5305 1.0795 0.9215c0.2294 0.35 0.397 0.735 0.45 1.1813 0.0882 0.5075 0.0529 1.0937-0.0883 1.715-0.3353 1.4875-1.3235 3.2725-2.8323 5.2062zm11.241 1.295c-0.1003 0.721-0.3893 1.4033-0.8383 1.979-0.4489 0.5757-1.0421 1.0247-1.7206 1.3023-0.6706 0.28-1.4117 0.3587-2.1353 0.28-0.7058-0.0875-1.4117-0.315-2.1353-0.735-1.2013-0.7363-2.2815-1.6511-3.2029-2.7125 1.8529-2.275 2.9735-4.3488 3.3971-6.195 0.2029-0.875 0.2294-1.6625 0.1411-2.3888-0.1101-0.6883-0.369-1.345-0.7588-1.925-0.445-0.6289-1.0391-1.1397-1.7299-1.4876-0.6908-0.3478-1.4572-0.5221-2.2319-0.5074-1.6323 0-3.0882 0.7525-3.9705 1.9863-0.3972 0.5785-0.6539 1.2404-0.75 1.9337-0.1147 0.735-0.08823 1.5488 0.14118 2.3888 0.42353 1.8462 1.5706 3.9462 3.3971 6.2125-0.9058 1.0816-1.9885 2.0045-3.203 2.73-0.73235 0.42-1.4294 0.6387-2.1353 0.7262-1.0978 0.1395-2.2066-0.1564-3.0856-0.8232-0.87899-0.6669-1.457-1.6508-1.6085-2.738-0.08823-0.7-0.02647-1.4 0.25589-2.1875 0.08823-0.28 0.22058-0.56 0.36176-0.8925 0.19412-0.455 0.42353-0.9275 0.64412-1.4l0.03529-0.0613c1.9059-4.1737 3.9882-8.435 6.15-12.609l0.08824-0.175c0.22056-0.42 0.44116-0.86625 0.67056-1.2862 0.2294-0.44625 0.4765-0.875 0.7941-1.225 0.275-0.32548 0.6186-0.58724 1.0065-0.76683 0.388-0.1796 0.811-0.27268 1.2391-0.27268 0.4282 0 0.8512 0.09308 1.2391 0.27268 0.388 0.17959 0.7316 0.44135 1.0065 0.76683 0.3088 0.35 0.5647 0.77875 0.7941 1.225 0.2206 0.42 0.4412 0.875 0.6706 1.2862l0.0883 0.175c2.1529 4.1738 4.2353 8.435 6.1764 12.609l0.0265 0.0263c0.2294 0.455 0.4235 0.9625 0.6441 1.4 0.1412 0.3412 0.2824 0.6125 0.3706 0.9012 0.1677 0.7875 0.2559 1.4875 0.1677 2.1875zm12.282-1.4875c-0.6649 0.0097-1.3234-0.1292-1.9268-0.4064-0.6033-0.2772-1.136-0.6856-1.5585-1.1948-0.9493-1.085-1.4532-2.4841-1.4118-3.92-0.0145-1.4672 0.5056-2.8903 1.4648-4.0075 0.4436-0.5157 0.9959-0.9287 1.6178-1.2099 0.622-0.2812 1.2986-0.42373 1.9822-0.41761 0.6431-0.01746 1.2802 0.12761 1.8513 0.42151 0.5711 0.2938 1.0575 0.7269 1.4134 1.2585l0.0882-1.3738h2.5765v10.57h-2.5853l-0.0883-1.54c-0.3669 0.5676-0.874 1.0328-1.4732 1.3513s-1.2705 0.4799-1.9503 0.4687zm0.6706-2.52c0.5118 0 0.9618-0.14 1.3853-0.3937 0.3882-0.28 0.7059-0.6475 0.9529-1.0938 0.2206-0.4462 0.3353-0.98 0.3353-1.575 0.0344-0.5167-0.067-1.0335-0.2944-1.4998-0.2273-0.4662-0.5728-0.866-1.0026-1.1602-0.413-0.2551-0.8899-0.3904-1.3765-0.3904s-0.9635 0.1353-1.3765 0.3904c-0.3882 0.28-0.7059 0.6475-0.9529 1.0938-0.2334 0.4921-0.3481 1.0313-0.3353 1.575-0.0344 0.5168 0.067 1.0336 0.2944 1.4998 0.2273 0.4663 0.5728 0.866 1.0026 1.1602 0.4148 0.2537 0.8648 0.3937 1.3677 0.3937zm9.8382-11.182c0 0.30625-0.0529 0.58625-0.1941 0.81375-0.1412 0.21875-0.3353 0.42-0.5912 0.56-0.2558 0.14-0.5294 0.1925-0.8117 0.1925-0.2824 0-0.5647-0.0525-0.8206-0.1925-0.242-0.1336-0.4455-0.32638-0.5912-0.56-0.1366-0.24926-0.2037-0.53019-0.1941-0.81375 0-0.315 0.0618-0.595 0.1941-0.81375 0.1412-0.2625 0.3441-0.42 0.5912-0.56 0.2559-0.14 0.5294-0.20125 0.8206-0.20125 0.2808-0.00642 0.5586 0.05955 0.806 0.19145 0.2475 0.1319 0.4562 0.32521 0.6057 0.56105 0.1284 0.25511 0.1921 0.53746 0.1853 0.8225zm-3 13.387v-10.552h2.8059v10.57h-2.8147l0.0088-0.0175zm10.306-7.7875v0.035c-0.1323-0.0612-0.3088-0.0875-0.4412-0.1137-0.1764-0.035-0.3176-0.035-0.4853-0.035-0.7853 0-1.3764 0.2275-1.7647 0.7-0.4235 0.4812-0.6176 1.155-0.6176 2.0212v5.1888h-2.8147v-10.57h2.5853l0.0882 1.6012c0.2824-0.56 0.6177-0.98 1.0941-1.295 0.474-0.306 1.0319-0.4589 1.5971-0.4375 0.2029 0 0.397 0.0175 0.5647 0.0525 0.0882 0.0263 0.1412 0.0263 0.1941 0.0525v2.8zm1.1294 7.7875v-14.892h2.8059v5.6875c0.3971-0.5075 0.8471-0.9012 1.4118-1.2075 0.894-0.43463 1.9096-0.55793 2.8829-0.35 0.9733 0.208 1.8476 0.7351 2.4818 1.4963 0.9514 1.0873 1.4554 2.4898 1.4117 3.9287 0.0146 1.4672-0.5056 2.8903-1.4647 4.0075-0.4436 0.5157-0.9959 0.9287-1.6179 1.2099-0.6219 0.2812-1.2985 0.4238-1.9821 0.4176-0.6431 0.0175-1.2802-0.1275-1.8513-0.4214s-1.0575-0.727-1.4134-1.2586l-0.0882 1.3738-2.5765 0.0262v-0.0175zm5.4265-2.205c0.5029 0 0.9529-0.14 1.3765-0.3937 0.3882-0.28 0.7058-0.6475 0.9529-1.0938 0.2294-0.4462 0.3353-0.98 0.3353-1.575 0-0.5862-0.1059-1.12-0.3353-1.5662-0.2317-0.4303-0.5573-0.804-0.9529-1.0938-0.413-0.2551-0.8899-0.3904-1.3765-0.3904s-0.9635 0.1353-1.3765 0.3904c-0.397 0.28-0.7059 0.6475-0.9617 1.0938-0.2334 0.4921-0.3482 1.0313-0.3353 1.575-0.0344 0.5168 0.067 1.0336 0.2944 1.4998 0.2273 0.4663 0.5728 0.866 1.0026 1.1602 0.4147 0.2537 0.8647 0.3937 1.3765 0.3937zm6.6265 2.2138v-10.57h2.5853l0.0882 1.3737c0.3249-0.5265 0.7857-0.9575 1.3349-1.2482 0.5491-0.2908 1.1666-0.43077 1.7886-0.40551 0.7113-0.01218 1.4104 0.18381 2.0099 0.56361 0.5995 0.3797 1.0728 0.9263 1.3607 1.5714 0.3088 0.665 0.4765 1.4875 0.4765 2.4062v6.335h-2.8147v-5.9675c0-0.735-0.1677-1.3125-0.503-1.7412-0.3353-0.42-0.7941-0.6475-1.3764-0.6475-0.4236 0-0.7941 0.0875-1.1206 0.28-0.3088 0.2012-0.5647 0.455-0.7588 0.8137-0.1963 0.3627-0.2936 0.7699-0.2824 1.1813v6.055h-2.7882zm11.047 0v-14.91h2.8147v5.6875c0.3813-0.5103 0.8772-0.9255 1.4485-1.2126s1.2023-0.43811 1.8427-0.44116c0.6649-0.00965 1.3234 0.12926 1.9268 0.40646 0.6033 0.2772 1.136 0.6856 1.5585 1.1948 0.9447 1.0872 1.4451 2.4855 1.4029 3.92 0.0154 1.4673-0.5049 2.8907-1.4647 4.0075-0.4436 0.5157-0.9959 0.9287-1.6179 1.2099-0.6219 0.2812-1.2985 0.4237-1.9821 0.4176-0.6431 0.0174-1.2802-0.1276-1.8513-0.4215s-1.0575-0.7269-1.4134-1.2585l-0.0794 1.3737-2.5853 0.0263zm5.453-2.2138c0.5117 0 0.9617-0.14 1.3764-0.3937 0.3971-0.28 0.7059-0.6475 0.9618-1.0938 0.2206-0.4462 0.3353-0.98 0.3353-1.575 0.0344-0.5167-0.067-1.0335-0.2944-1.4998-0.2274-0.4662-0.5728-0.866-1.0027-1.1602-0.413-0.2551-0.8898-0.3904-1.3764-0.3904s-0.9635 0.1353-1.3765 0.3904c-0.3882 0.28-0.7059 0.6475-0.9529 1.0938-0.2463 0.4877-0.3618 1.0302-0.3353 1.575-0.0344 0.5168 0.067 1.0336 0.2944 1.4998 0.2273 0.4663 0.5728 0.866 1.0026 1.1602 0.4147 0.2537 0.8383 0.3937 1.3677 0.3937z" fill="#FF385C"/>
</g>
<defs>
<clipPath id="a">
<rect transform="translate(.5)" width="90" height="28" fill="#fff"/>
</clipPath>
</defs>
</svg>
