<?xml version="1.0" encoding="UTF-8" standalone="no"?><svg fill="none" height="120" viewBox="0 0 143 120" width="143" xmlns="http://www.w3.org/2000/svg" xmlns:xlink="http://www.w3.org/1999/xlink"><clipPath id="a"><path d="m0 0h143v120h-143z"/></clipPath><g clip-path="url(#a)" opacity=".3"><path clip-rule="evenodd" d="m142.373 18.7419c-21.324 10.4122-31.986 22.6463-31.986 36.7028 9.089 1.0412 16.605 4.7288 22.547 11.0629 5.943 6.3341 8.915 13.6659 8.915 21.9957 0 8.8503-2.884 16.3127-8.652 22.3857-5.769 6.074-13.022 9.111-21.762 9.111-9.788 0-18.2649-3.948-25.4313-11.844-7.1663-7.896-10.7495-17.4835-10.7495-28.7634 0-33.8396 19.0518-60.3036 57.1558-79.3926zm-75.2544 0c-21.499 10.4122-32.2484 22.6463-32.2484 36.7028 9.2638 1.0412 16.8671 4.7288 22.8099 11.0629s8.9142 13.6659 8.9142 21.9957c0 8.8503-2.9277 16.3127-8.7831 22.3857-5.8555 6.074-13.1528 9.111-21.8922 9.111-9.7882 0-18.2217-3.948-25.3006-11.844-7.07898-7.896-10.6184-17.4835-10.6184-28.7634 0-33.8396 18.9643-60.3036 56.8935-79.3926z" fill="#2ec5ce" fill-rule="evenodd"/></g></svg>