<?xml version="1.0" encoding="UTF-8" standalone="no"?><svg width="32" height="32" viewBox="0 0 32 32" fill="none" xmlns="http://www.w3.org/2000/svg">
<path d="M24 13.3333H32L28 8L24 13.3333ZM24 18.6667H32L28 24L24 18.6667Z" fill="#D6B1FF"/>
<path d="M1.33333 0H9.33333V32H1.33333C0.979711 32 0.640572 31.8595 0.390523 31.6095C0.140475 31.3594 0 31.0203 0 30.6667V1.33333C0 0.979711 0.140475 0.640572 0.390523 0.390523C0.640572 0.140475 0.979711 0 1.33333 0Z" fill="#8C30F5"/>
<path d="M12 0H20C20.3536 0 20.6928 0.140475 20.9428 0.390523C21.1929 0.640572 21.3333 0.979711 21.3333 1.33333V30.6667C21.3333 31.0203 21.1929 31.3594 20.9428 31.6095C20.6928 31.8595 20.3536 32 20 32H12V0Z" fill="#2EC5CE"/>
</svg>
