<?xml version="1.0" encoding="UTF-8"?>
<svg width="200px" height="200px" viewBox="0 0 200 200" version="1.1" xmlns="http://www.w3.org/2000/svg" xmlns:xlink="http://www.w3.org/1999/xlink">
    <title>Artboard</title>
    <g id="Artboard" stroke="none" stroke-width="1" fill="none" fill-rule="evenodd">
        <g id="Group-2" transform="translate(100.190661, 100.451880) rotate(90.000000) translate(-100.190661, -100.451880) translate(28.190661, 19.451880)" stroke="#979797" stroke-width="8">
            <g id="Group">
                <path d="M-2.84217094e-14,48.5481196 C24.2305204,16.1827065 49.1669667,1.77635684e-14 74.8093389,1.77635684e-14 C100.451711,1.77635684e-14 123.215216,16.1827065 143.099854,48.5481196" id="Path"></path>
                <path d="M14.4628465,60.5591497 C50.3028316,32.4295637 70.4183291,19.4731744 74.8093389,21.6899819 C79.2003487,23.9067893 97.3472913,36.8631786 129.250167,60.5591497" id="Path-Copy"></path>
                <circle id="Oval" cx="71.8093389" cy="80.5481196" r="28"></circle>
            </g>
            <g id="Group" transform="translate(72.000000, 105.500000) scale(1, -1) translate(-72.000000, -105.500000) translate(0.000000, 49.000000)">
                <path d="M-2.84217094e-14,48.5481196 C24.2305204,16.1827065 49.1669667,1.77635684e-14 74.8093389,1.77635684e-14 C100.451711,1.77635684e-14 123.215216,16.1827065 143.099854,48.5481196" id="Path"></path>
                <path d="M14.4628465,60.5591497 C50.3028316,32.4295637 70.4183291,19.4731744 74.8093389,21.6899819 C79.2003487,23.9067893 97.3472913,36.8631786 129.250167,60.5591497" id="Path-Copy"></path>
                <circle id="Oval" cx="71.8093389" cy="80.5481196" r="28"></circle>
            </g>
        </g>
    </g>
</svg>